<?xml version="1.0" encoding="UTF-8"?>
<svg version="1.1" xmlns="http://www.w3.org/2000/svg" width="1051" height="722">
<path d="M0 0 C346.83 0 693.66 0 1051 0 C1051 238.26 1051 476.52 1051 722 C704.17 722 357.34 722 0 722 C0 483.74 0 245.48 0 0 Z " fill="#262262" transform="translate(0,0)"/>
<path d="M0 0 C346.83 0 693.66 0 1051 0 C1051 238.26 1051 476.52 1051 722 C704.17 722 357.34 722 0 722 C0 483.74 0 245.48 0 0 Z M43 45 C43 259.83 43 474.66 43 696 C360.79 696 678.58 696 1006 696 C1006 481.17 1006 266.34 1006 45 C688.21 45 370.42 45 43 45 Z " fill="#FFFFFF" transform="translate(0,0)"/>
<path d="M0 0 C11.51305593 9.65878971 19.15939021 21.80450012 25.0625 35.5 C25.5678125 36.66789062 26.073125 37.83578125 26.59375 39.0390625 C30.80355381 50.72431148 31.5795378 62.53263787 31.4375 74.8125 C31.43284729 75.53267303 31.42819458 76.25284607 31.42340088 76.99484253 C31.22256036 103.56206993 25.23833717 128.17219668 7.0625 148.5 C6.32386719 149.33273437 5.58523438 150.16546875 4.82421875 151.0234375 C-10.38912955 167.20785058 -32.35749669 176.54634308 -54.48388672 177.62402344 C-82.74513261 178.44026908 -105.71696784 171.76708425 -127.08984375 152.56640625 C-142.93488151 137.45127426 -152.98950216 114.58875872 -154.13037109 92.81982422 C-154.7592081 63.43217493 -152.69395193 35.05721697 -132.9375 11.5 C-131.90689453 10.22769531 -131.90689453 10.22769531 -130.85546875 8.9296875 C-98.42726872 -29.28300226 -37.83907833 -29.69955828 0 0 Z " fill="#FDFDFD" transform="translate(277.9375,259.5)"/>
<path d="M0 0 C2.41954162 2.39920933 4.78455067 4.83017516 7.1015625 7.328125 C7.875 6.51988281 8.6484375 5.71164062 9.4453125 4.87890625 C19.2339935 -5.22187762 29.85734274 -13.96166728 44.60595703 -14.81713867 C47.47960934 -14.84196216 50.35279511 -14.85753284 53.2265625 -14.859375 C54.20882812 -14.87162109 55.19109375 -14.88386719 56.203125 -14.89648438 C65.99996034 -14.91582023 75.1261078 -13.64775353 84.1015625 -9.609375 C84.77944824 -9.30700928 85.45733398 -9.00464355 86.15576172 -8.69311523 C100.10434619 -2.15791453 109.3537889 8.95208174 115.30249023 23.0055542 C119.72827619 35.86947363 119.53109179 49.00656437 119.46484375 62.43359375 C119.46432396 64.53249613 119.46484626 66.631399 119.46635437 68.7303009 C119.4662653 73.096399 119.45596189 77.46230991 119.43774414 81.82836914 C119.4149037 87.4247899 119.41454781 93.02094164 119.42126179 98.61739635 C119.42459856 102.93675635 119.41797974 107.25605487 119.40813255 111.57540321 C119.40428684 113.64028922 119.40312973 115.70518206 119.4047184 117.77007103 C119.40508865 120.64396691 119.39248508 123.51751392 119.3762207 126.39135742 C119.37869812 127.2417308 119.38117554 128.09210419 119.38372803 128.96824646 C119.31683179 136.36306249 119.31683179 136.36306249 117.1015625 139.328125 C112.32583433 142.51194378 106.86112194 141.66139605 101.27758789 141.64379883 C99.1747647 141.64064107 97.07335219 141.66409628 94.97070312 141.68945312 C93.6302101 141.69172652 92.28971331 141.69242943 90.94921875 141.69140625 C89.73242432 141.69438721 88.51562988 141.69736816 87.26196289 141.70043945 C83.85509204 141.29908928 82.482705 140.75336931 80.1015625 138.328125 C78.87337861 134.64357334 78.9411134 131.2290041 78.92797852 127.39111328 C78.9212915 126.58250351 78.91460449 125.77389374 78.90771484 124.94078064 C78.89366072 123.1827457 78.88176781 121.42469246 78.87176704 119.66662979 C78.85532218 116.87354263 78.83207673 114.08058815 78.80686951 111.28756714 C78.73623362 103.3450996 78.67633654 95.40257451 78.62475586 87.45996094 C78.59271548 82.59994585 78.55136709 77.74007835 78.50456047 72.88018417 C78.48867453 71.03767466 78.47629217 69.19513114 78.46765327 67.35257339 C79.15158915 45.92253377 79.15158915 45.92253377 70.2734375 27.359375 C62.91056892 20.50235236 55.68296706 19.76757817 45.9609375 20.01953125 C39.35261079 20.54792984 35.46143535 22.68418905 30.8515625 27.328125 C23.14469131 37.6431503 23.55479339 49.61167324 23.64627266 61.88304138 C23.66836276 64.9770609 23.66437902 68.07011418 23.65379333 71.16418457 C23.63225027 78.83557352 23.64957547 86.5067381 23.67529297 94.17810059 C23.69666966 100.68920203 23.69870085 107.19967905 23.67237663 113.71076965 C23.66802442 116.75790024 23.6926534 119.80394466 23.71791077 122.85095215 C23.71264244 124.71248869 23.70592162 126.57402188 23.69750977 128.43554688 C23.71241959 129.28128265 23.72732941 130.12701843 23.74269104 130.99838257 C23.69215149 135.14010946 23.66751837 136.71914628 20.75547791 139.85255432 C17.5077957 141.65825794 15.3699535 141.83037738 11.6640625 141.82421875 C9.82714844 141.82518555 9.82714844 141.82518555 7.953125 141.82617188 C6.68210937 141.80619141 5.41109375 141.78621094 4.1015625 141.765625 C2.19503906 141.77625977 2.19503906 141.77625977 0.25 141.78710938 C-11.5199846 141.7065779 -11.5199846 141.7065779 -15.8984375 137.328125 C-16.00240352 134.56670062 -16.04204928 131.82947241 -16.0402832 129.06738281 C-16.04375763 128.20054367 -16.04723206 127.33370453 -16.05081177 126.44059753 C-16.05818603 124.54937639 -16.06352246 122.6581465 -16.06710243 120.76691437 C-16.07425998 117.76395151 -16.08992602 114.76115284 -16.10844421 111.75823975 C-16.16091275 103.21661786 -16.20878959 94.67507994 -16.22436523 86.13330078 C-16.23451035 80.91239665 -16.26401121 75.69189686 -16.30568504 70.47115326 C-16.31792021 68.48909328 -16.32313013 66.50697593 -16.32088661 64.52487946 C-16.19002943 44.69119254 -16.19002943 44.69119254 -24.8984375 27.328125 C-30.80531591 21.58532654 -36.90537341 20.1411971 -44.8984375 19.953125 C-52.97904698 20.17734682 -58.0626922 21.05098422 -63.7109375 27.015625 C-69.77991697 34.52235815 -71.04276672 42.76533567 -71.07202148 52.1640625 C-71.0787085 53.05554993 -71.08539551 53.94703735 -71.09228516 54.86553955 C-71.10632142 56.79928225 -71.11822 58.73304137 -71.12823296 60.66680908 C-71.14465586 63.72633867 -71.16789292 66.78574604 -71.19313049 69.84521484 C-71.26388112 78.54323231 -71.32409367 87.24129867 -71.37524414 95.93945312 C-71.40701497 101.26092978 -71.44828135 106.58226403 -71.49543953 111.90362549 C-71.51146575 113.93220463 -71.52378445 115.96081654 -71.53234673 117.98944092 C-71.54448545 120.8238372 -71.56862797 123.65789771 -71.59545898 126.4921875 C-71.59604813 127.33179016 -71.59663727 128.17139282 -71.59724426 129.03643799 C-71.68915326 136.35467991 -71.68915326 136.35467991 -73.8984375 139.328125 C-78.67456495 142.51220996 -84.13723379 141.70003435 -89.72241211 141.69873047 C-91.82553106 141.70310336 -93.92654926 141.73942979 -96.02929688 141.77734375 C-97.36978451 141.7832125 -98.71028209 141.7871815 -100.05078125 141.7890625 C-101.26757568 141.79728027 -102.48437012 141.80549805 -103.73803711 141.81396484 C-107.49629825 141.23621748 -108.63160481 140.32190164 -110.8984375 137.328125 C-112.12686906 133.64283032 -112.05395086 130.23276734 -112.05957031 126.39453125 C-112.06453522 125.58580566 -112.06950012 124.77708008 -112.07461548 123.94384766 C-112.08925163 121.25943143 -112.09604772 118.57507464 -112.1015625 115.890625 C-112.10438988 114.96829071 -112.10721725 114.04595642 -112.11013031 113.09567261 C-112.12514263 108.1978934 -112.13435428 103.3001437 -112.13867188 98.40234375 C-112.14410546 93.39217661 -112.16801748 88.38228833 -112.19664383 83.37220764 C-112.21549094 79.4820077 -112.22048775 75.59187133 -112.22200775 71.70162964 C-112.2249943 69.85845443 -112.23288348 68.01527923 -112.24619293 66.17214966 C-112.35799646 49.47289453 -111.76115663 32.42633781 -103.8984375 17.328125 C-103.45628906 16.45929688 -103.01414062 15.59046875 -102.55859375 14.6953125 C-96.96534652 4.56239369 -89.10351227 -2.38275835 -78.8984375 -7.671875 C-78.18042969 -8.05085938 -77.46242188 -8.42984375 -76.72265625 -8.8203125 C-52.66881075 -20.51742933 -19.9847399 -18.42259042 0 0 Z " fill="#FDFDFD" transform="translate(432.8984375,291.671875)"/>
<path d="M0 0 C8.07802951 6.97434524 13.77766115 15.06421309 18.125 24.75 C18.39924805 25.357229 18.67349609 25.96445801 18.95605469 26.59008789 C23.70837596 37.923341 24.73303123 49.25397764 24.625 61.4375 C24.63571917 62.79818532 24.64743363 64.15886318 24.66015625 65.51953125 C24.65628906 66.80472656 24.65242187 68.08992188 24.6484375 69.4140625 C24.64505371 70.57244629 24.64166992 71.73083008 24.63818359 72.92431641 C24.25 75.8125 24.25 75.8125 23.00928783 77.47046375 C20.76042914 79.18595898 19.52419385 79.18287923 16.71321106 79.17326355 C15.78353012 79.17738754 14.85384918 79.18151154 13.89599609 79.1857605 C12.87820068 79.17497467 11.86040527 79.16418884 10.81176758 79.15307617 C9.73843674 79.15351425 8.6651059 79.15395233 7.55924988 79.15440369 C4.00415996 79.1523102 0.449539 79.12895218 -3.10546875 79.10546875 C-5.56740562 79.0998748 -8.02934583 79.09560376 -10.49128723 79.09260559 C-16.97688996 79.08114104 -23.46229172 79.05165979 -29.94781494 79.01849365 C-36.5634896 78.98782758 -43.17919666 78.97410765 -49.79492188 78.95898438 C-62.78003375 78.92679182 -75.76500619 78.87615104 -88.75 78.8125 C-88.14022062 80.88722106 -87.5228596 82.95971472 -86.90234375 85.03125 C-86.55937256 86.18560547 -86.21640137 87.33996094 -85.86303711 88.52929688 C-82.69092906 97.88628503 -76.15752548 104.77493308 -67.75 109.8125 C-51.50220468 117.43259005 -30.14692049 115.40702304 -13.66748047 109.54003906 C-9.80551786 108.07471584 -6.02665082 106.42910746 -2.25390625 104.75 C1.13972535 103.4793735 3.67777557 103.40656541 7.25 103.8125 C16.79434783 122.21945652 16.79434783 122.21945652 15.25 129.8125 C-4.92512805 147.24550204 -38.8147042 147.46375023 -63.75 145.8125 C-74.49205516 144.62285028 -84.25919964 140.94972221 -93.75 135.8125 C-94.68199219 135.31105469 -95.61398437 134.80960938 -96.57421875 134.29296875 C-115.32133138 123.30143766 -125.33537664 106.02552037 -131.75 85.8125 C-132.04003906 84.90886719 -132.33007812 84.00523437 -132.62890625 83.07421875 C-137.38490936 64.34953518 -133.39148439 41.18927793 -123.96484375 24.6875 C-111.03388874 4.53269139 -93.72283594 -8.88872739 -70.5 -15 C-45.34982922 -19.85059035 -20.47651941 -15.64021441 0 0 Z " fill="#FDFDFD" transform="translate(699.75,290.1875)"/>
<path d="M0 0 C1.92682617 -0.01160156 1.92682617 -0.01160156 3.89257812 -0.0234375 C17.51040858 0.00462604 17.51040858 0.00462604 22.5625 2.25 C24.43963583 4.72169869 25.4666953 7.36347464 26.5625 10.25 C27.18475343 11.62531965 27.8162404 12.99650015 28.45703125 14.36328125 C28.76874268 15.04801514 29.0804541 15.73274902 29.40161133 16.43823242 C35.50227063 29.75196119 43.39728749 40.8970695 52.5625 52.25 C57.19121145 48.93033264 60.35658849 45.00188873 63.75 40.5 C64.5999353 39.37924072 64.5999353 39.37924072 65.46704102 38.23583984 C72.98792301 28.17767816 79.57563388 17.56171217 85.30859375 6.38671875 C87.40599658 2.81263979 87.40599658 2.81263979 89.5625 1.25 C92.26828178 0.97613924 94.73872555 0.87701298 97.44140625 0.921875 C98.59321632 0.92468475 98.59321632 0.92468475 99.76829529 0.92755127 C101.38976389 0.9342682 103.01121638 0.94817569 104.63256836 0.96875 C107.11913043 0.99992641 109.60505865 1.00972352 112.09179688 1.015625 C113.66667442 1.02479436 115.24154551 1.03516992 116.81640625 1.046875 C117.93517906 1.05324982 117.93517906 1.05324982 119.07655334 1.05975342 C124.32806175 1.13278087 124.32806175 1.13278087 126.5625 2.25 C126.08877055 8.26169343 124.81355062 12.63279857 122 17.9375 C121.46318604 18.9745105 121.46318604 18.9745105 120.91552734 20.0324707 C114.8479 31.59232401 107.70982674 42.07280273 99.5625 52.25 C99.04461914 52.90468262 98.52673828 53.55936523 97.99316406 54.23388672 C92.03224505 61.76748128 86.12187807 69.09424086 79.07421875 75.6484375 C77.33369494 77.12534683 77.33369494 77.12534683 77.5625 79.25 C78.98226553 80.64582572 78.98226553 80.64582572 80.875 82.125 C101.43341498 99.7670724 116.18567572 123.92780758 127.5625 148.25 C127.85962891 148.88437988 128.15675781 149.51875977 128.46289062 150.17236328 C130.18491223 153.99097616 130.99128385 156.20177909 129.5625 160.25 C126.58521843 163.22728157 115.42458719 161.57376968 111.18969727 161.60009766 C109.23514904 161.61665475 107.2806613 161.64394157 105.32641602 161.68212891 C102.51286309 161.7368534 99.70073197 161.75876523 96.88671875 161.7734375 C95.57715462 161.80744156 95.57715462 161.80744156 94.24113464 161.84213257 C88.17941382 161.82099506 88.17941382 161.82099506 85.11889648 158.98828125 C82.42942965 154.25650713 82.42942965 154.25650713 81.3359375 151.9140625 C80.75573853 150.69964478 80.75573853 150.69964478 80.16381836 149.46069336 C79.7591333 148.60741455 79.35444824 147.75413574 78.9375 146.875 C72.34611011 133.36676497 64.33215096 121.67356825 54.5625 110.25 C53.54008607 109.02214775 52.5189373 107.79323887 51.5 106.5625 C50.5409375 105.4178125 50.5409375 105.4178125 49.5625 104.25 C43.95807161 106.57077652 41.10210451 111.52849657 37.5625 116.25 C37.16724121 116.77706543 36.77198242 117.30413086 36.36474609 117.84716797 C27.28484667 130.03914425 19.51278607 142.74757687 13.0703125 156.51953125 C11.5625 159.25 11.5625 159.25 8.5625 161.25 C5.97222704 161.44543664 3.49216592 161.53014787 0.90234375 161.515625 C0.15666641 161.51753845 -0.58901093 161.5194519 -1.35728455 161.52142334 C-2.93163389 161.52278302 -4.50599453 161.51910173 -6.08032227 161.51074219 C-8.49455821 161.50002416 -10.9080526 161.51065218 -13.32226562 161.5234375 C-14.85156415 161.52211616 -16.38086221 161.5195543 -17.91015625 161.515625 C-18.63413101 161.51967346 -19.35810577 161.52372192 -20.10401917 161.52789307 C-25.20756605 161.47993395 -25.20756605 161.47993395 -27.4375 159.25 C-27.85862254 152.63398938 -25.31756206 146.85085414 -22.4375 141.0625 C-22.03378174 140.23516357 -21.63006348 139.40782715 -21.21411133 138.55541992 C-17.4850478 131.0675994 -13.26746507 124.07230223 -8.4375 117.25 C-7.97972168 116.59902344 -7.52194336 115.94804687 -7.05029297 115.27734375 C-0.53457109 106.09302966 6.37130188 97.97534799 14.5625 90.25 C16.23399056 88.58817123 17.90149259 86.92230678 19.5625 85.25 C20.5625 84.25 21.5625 83.25 22.5625 82.25 C21.30291695 79.54906481 19.96062568 77.35144868 18.015625 75.09765625 C17.50741211 74.49703369 16.99919922 73.89641113 16.47558594 73.27758789 C15.92676758 72.62910889 15.37794922 71.98062988 14.8125 71.3125 C0.6614343 54.20166916 -10.82306591 35.39421148 -19.5625 15 C-19.87050537 14.29649414 -20.17851074 13.59298828 -20.49584961 12.86816406 C-22.10481804 8.9479413 -22.8119189 6.32586295 -21.4375 2.25 C-14.43649019 -0.40301425 -7.40380216 -0.04444504 0 0 Z " fill="#FDFDFD" transform="translate(747.4375,273.75)"/>
<path d="M0 0 C11.81882853 11.16222694 17.8533063 27.80322092 18.74365234 43.78588867 C18.82593929 47.16027997 18.86542888 50.52599189 18.85473633 53.90087891 C18.85157703 55.97872524 18.87512496 58.05514088 18.90039062 60.1328125 C18.98731062 78.38546996 14.31727986 94.56519122 1.734375 108.046875 C-7.97860256 117.41727866 -19.69375385 119.30359521 -32.5859375 119.36328125 C-34.22175781 119.39421875 -34.22175781 119.39421875 -35.890625 119.42578125 C-49.20409159 119.48948205 -58.37004757 115.60203245 -68.4609375 107.11328125 C-81.61696088 93.52802383 -84.8363743 73.9647372 -84.77661133 55.80786133 C-84.77345826 53.81390926 -84.79777172 51.81997599 -84.82226562 49.82617188 C-84.82819056 37.84002734 -83.40130001 26.34040385 -77.6484375 15.67578125 C-77.29442871 15.00039307 -76.94041992 14.32500488 -76.57568359 13.62915039 C-70.15722691 1.69070484 -60.48485472 -5.83483339 -47.4609375 -9.88671875 C-30.91779938 -13.70436601 -13.46174526 -10.32067137 0 0 Z " fill="#262262" transform="translate(249.4609375,283.88671875)"/>
<path d="M0 0 C317.79 0 635.58 0 963 0 C963 214.83 963 429.66 963 651 C645.21 651 327.42 651 0 651 C0 436.17 0 221.34 0 0 Z M3 4 C3 216.52 3 429.04 3 648 C318.81 648 634.62 648 960 648 C960 435.48 960 222.96 960 4 C644.19 4 328.38 4 3 4 Z " fill="#302C32" transform="translate(43,45)"/>
<path d="M0 0 C4.82249815 3.99103295 6.57546016 8.73288907 7.359375 14.765625 C7.92107123 26.68606715 3.00529854 35.50030553 -4.43310547 44.37280273 C-9.11268357 50.01454554 -11.58994951 55.35609367 -11.27734375 62.74609375 C-10.30247372 70.66862904 -6.04558731 76.02823639 -1 82 C-1.061875 80.845 -1.12375 79.69 -1.1875 78.5 C-1.14279748 70.03632318 2.85051067 64.39033014 8 58 C14.0439481 50.29860987 16.99620058 45.03419422 16 35 C15.19722708 31.58937515 14.17894068 28.2982269 13 25 C17.67894837 26.26257337 20.33337532 27.82959567 23.6875 31.3125 C24.43386719 32.07175781 25.18023437 32.83101562 25.94921875 33.61328125 C31.74761733 40.36151274 33.47336968 47.69571162 33.24609375 56.42578125 C32.38306634 65.45332192 28.72593614 73.51867753 22.11328125 79.7890625 C13.09133165 86.98535236 4.45423744 88.09852062 -7 87 C-10.37384851 86.13201862 -13.06116244 84.85123626 -16 83 C-16.69609375 82.5875 -17.3921875 82.175 -18.109375 81.75 C-25.10869206 77.11887293 -29.39860689 69.89877543 -32 62 C-33.18875314 50.67919978 -31.43324018 42.18626799 -24.5 33.1875 C-22.11026992 30.33322426 -19.62942323 27.59247695 -17.05859375 24.90234375 C-9.91905109 17.41902453 -3.34368168 10.03104504 0 0 Z " fill="#FBFBFC" transform="translate(441,166)"/>
<path d="M0 0 C7.28665074 5.20107226 11.58330367 12.25178608 13.9375 20.8125 C14.33048911 23.95641285 14.25 27.14412053 14.25 30.3125 C-10.5 30.3125 -35.25 30.3125 -60.75 30.3125 C-57.12594716 14.60827101 -53.08281275 6.50365643 -40.2265625 -2.35546875 C-28.0197202 -8.92097857 -11.53993278 -7.02347484 0 0 Z " fill="#272363" transform="translate(670.75,309.6875)"/>
<path d="M0 0 C3.52067351 -0.08782542 7.04106144 -0.14066643 10.5625 -0.1875 C11.55314453 -0.21263672 12.54378906 -0.23777344 13.56445312 -0.26367188 C20.20996492 -0.32990621 25.54094365 -0.04800257 30.7421875 4.53515625 C34.98844649 10.26028475 35.88039243 13.89750828 35 21 C33.01023225 26.795921 30.42173473 31.84782864 25 35 C18.0654895 38.24730249 12.08566807 38.36443843 4.5 38.1875 C2.83710938 38.16719727 2.83710938 38.16719727 1.140625 38.14648438 C-1.57343232 38.11138881 -4.28645193 38.0622227 -7 38 C-6.44322254 29.61285113 -4.7559147 21.56841382 -2.9375 13.375 C-2.65248001 12.07172706 -2.36797132 10.76834219 -2.08398438 9.46484375 C-1.39432225 6.30876282 -0.69955412 3.15390034 0 0 Z " fill="#AFCE35" transform="translate(275,537)"/>
<path d="M0 0 C2.97 0 5.94 0 9 0 C9.99 8.25 10.98 16.5 12 25 C16.29 16.75 20.58 8.5 25 0 C27.97 0 30.94 0 34 0 C35.1906259 2.3812518 35.40469351 4.36594224 35.75390625 7.0078125 C35.8732251 7.8961377 35.99254395 8.78446289 36.11547852 9.69970703 C36.26299561 10.83005371 36.4105127 11.96040039 36.5625 13.125 C37.036875 16.71375 37.51125 20.3025 38 24 C42.29 16.08 46.58 8.16 51 0 C53.97 0 56.94 0 60 0 C58.63296738 4.49713027 56.83261582 8.441286 54.59375 12.5703125 C54.26838257 13.17382538 53.94301514 13.77733826 53.60778809 14.3991394 C52.57631997 16.31021271 51.53838325 18.21767679 50.5 20.125 C49.46308565 22.04023045 48.42750317 23.95617572 47.39221191 25.87228394 C46.45439395 27.60629507 45.5134147 29.33859537 44.57226562 31.07080078 C43.34128315 33.36417465 42.14533559 35.66314593 41 38 C39.35425434 38.02688151 37.70838587 38.04634123 36.0625 38.0625 C34.68771484 38.07990234 34.68771484 38.07990234 33.28515625 38.09765625 C31 38 31 38 30 37 C29.59467001 34.26920014 29.24520752 31.55451593 28.9375 28.8125 C28.84662109 28.05646484 28.75574219 27.30042969 28.66210938 26.52148438 C28.17778764 22.32281554 27.8986898 18.23476656 28 14 C27.34 14 26.68 14 26 14 C25.88140625 14.5669458 25.7628125 15.1338916 25.640625 15.71801758 C24.94374839 18.20037492 23.95677978 20.23444701 22.75 22.51171875 C22.3065625 23.35154297 21.863125 24.19136719 21.40625 25.05664062 C20.71015625 26.35891602 20.71015625 26.35891602 20 27.6875 C19.5359375 28.56728516 19.071875 29.44707031 18.59375 30.35351562 C15.14501232 36.85498768 15.14501232 36.85498768 14 38 C12.31391034 38.07205511 10.62499341 38.08386068 8.9375 38.0625 C8.01839844 38.05347656 7.09929688 38.04445313 6.15234375 38.03515625 C5.44207031 38.02355469 4.73179687 38.01195312 4 38 C3.32144793 33.54339274 2.6593446 29.08448609 2 24.625 C1.71382812 22.74748047 1.71382812 22.74748047 1.421875 20.83203125 C0.39119012 13.80128794 -0.21736415 7.10509072 0 0 Z " fill="#AFCE35" transform="translate(578,537)"/>
<path d="M0 0 C4.33460571 2.49217577 7.37862946 5.88225892 9.625 10.375 C10.23142008 16.83685329 10.35918605 22.95491258 7.0390625 28.6875 C3.89330445 32.44155381 -1.59846292 36.11532387 -6.546875 36.578125 C-13.53856618 36.70524666 -17.63831518 35.72982182 -23.0625 31.0625 C-28.0154315 25.30639042 -28.93514553 20.68892334 -28.72265625 13.21484375 C-28.06652144 7.85518074 -25.18425258 4.98045614 -21.3125 1.5625 C-15.25443453 -2.94882535 -6.84143853 -3.14054607 0 0 Z " fill="#2D2967" transform="translate(915.375,261.625)"/>
<path d="M0 0 C3.35399849 -0.0878954 6.7076964 -0.14068879 10.0625 -0.1875 C11.00544922 -0.21263672 11.94839844 -0.23777344 12.91992188 -0.26367188 C18.74828165 -0.3245955 22.91280227 0.05617297 28 3 C30.17911109 5.14791727 30.88426803 6.36816602 31.43359375 9.3671875 C31.44251706 15.09595545 30.93234225 18.52149911 27 23 C23.6 26 23.6 26 21 26 C22.98 29.96 24.96 33.92 27 38 C20.42707652 38.70111184 20.42707652 38.70111184 17 38 C14.58054872 35.6709458 13.19220191 33.12482394 12 30 C12 29.34 12 28.68 12 28 C9.36 28 6.72 28 4 28 C3.93941406 28.63808594 3.87882813 29.27617188 3.81640625 29.93359375 C3.73261719 30.75988281 3.64882813 31.58617187 3.5625 32.4375 C3.48128906 33.26121094 3.40007813 34.08492187 3.31640625 34.93359375 C3 37 3 37 2 38 C0.48071962 38.07179964 -1.04167482 38.08392007 -2.5625 38.0625 C-3.38878906 38.05347656 -4.21507812 38.04445313 -5.06640625 38.03515625 C-5.70449219 38.02355469 -6.34257813 38.01195312 -7 38 C-6.85900879 37.23969482 -6.71801758 36.47938965 -6.57275391 35.69604492 C-5.92330686 32.19323287 -5.27415178 28.69036678 -4.625 25.1875 C-4.40328125 23.99189453 -4.1815625 22.79628906 -3.953125 21.56445312 C-2.62171528 14.37875655 -1.30146322 7.19118257 0 0 Z " fill="#AFCE35" transform="translate(751,537)"/>
<path d="M0 0 C3.54138618 -0.11681812 7.0822724 -0.187455 10.625 -0.25 C11.62402344 -0.28351562 12.62304688 -0.31703125 13.65234375 -0.3515625 C19.7832342 -0.43276635 23.37324029 -0.16258641 28 4 C30.83852146 8.25778219 30.51245049 12.0036077 30 17 C28.27796418 21.16913936 25.68600951 23.44814726 22 26 C21.34 26 20.68 26 20 26 C20.433125 26.69867187 20.86625 27.39734375 21.3125 28.1171875 C21.869375 29.02726563 22.42625 29.93734375 23 30.875 C23.556875 31.77992188 24.11375 32.68484375 24.6875 33.6171875 C26 36 26 36 26 38 C22.7 38 19.4 38 16 38 C15.34 36.535625 14.68 35.07125 14 33.5625 C12.16543336 30.07889529 12.16543336 30.07889529 8.88671875 28.1796875 C6.44522138 27.86396731 6.44522138 27.86396731 3 28 C2.93941406 28.63808594 2.87882812 29.27617188 2.81640625 29.93359375 C2.73261719 30.75988281 2.64882813 31.58617187 2.5625 32.4375 C2.48128906 33.26121094 2.40007812 34.08492187 2.31640625 34.93359375 C2 37 2 37 1 38 C-1.67058851 38.14115161 -4.32432238 38.04247107 -7 38 C-6.45076707 29.82811073 -5.1570069 21.95267909 -3.5 13.9375 C-3.27441406 12.81150391 -3.04882812 11.68550781 -2.81640625 10.52539062 C-1.1409337 2.2818674 -1.1409337 2.2818674 0 0 Z " fill="#AFCE35" transform="translate(320,537)"/>
<path d="M0 0 C2.97 0 5.94 0 9 0 C12.96 6.93 16.92 13.86 21 21 C21.33 21 21.66 21 22 21 C22.11593506 20.43490723 22.23187012 19.86981445 22.35131836 19.28759766 C22.87715296 16.73279309 23.40727295 14.1788964 23.9375 11.625 C24.11990234 10.73554687 24.30230469 9.84609375 24.49023438 8.9296875 C24.66748047 8.07890625 24.84472656 7.228125 25.02734375 6.3515625 C25.18968506 5.56604004 25.35202637 4.78051758 25.51928711 3.97119141 C26 2 26 2 27 0 C29.97 0 32.94 0 36 0 C35.20955463 4.29189252 34.41741916 8.5834715 33.625 12.875 C33.29242188 14.68097656 33.29242188 14.68097656 32.953125 16.5234375 C32.30763273 20.01668976 31.65595392 23.508698 31 27 C30.81018555 28.01610352 30.62037109 29.03220703 30.42480469 30.07910156 C30.25110352 30.98370117 30.07740234 31.88830078 29.8984375 32.8203125 C29.74810059 33.60937988 29.59776367 34.39844727 29.44287109 35.21142578 C29 37 29 37 28 38 C23.08080229 39.01776504 23.08080229 39.01776504 20 38 C17.01144853 34.70636724 15.06511644 30.91842606 13 27 C12.41605469 25.95070313 11.83210938 24.90140625 11.23046875 23.8203125 C9.79314712 21.22842104 8.39294067 18.61601053 7 16 C5.35 23.26 3.7 30.52 2 38 C-0.97 38 -3.94 38 -7 38 C-5.2977958 25.22076551 -2.58226388 12.62358142 0 0 Z " fill="#AECD35" transform="translate(377,537)"/>
<path d="M0 0 C7.4522293 -0.45859873 7.4522293 -0.45859873 9.84765625 1.546875 C10.24855469 2.27390625 10.64945312 3.0009375 11.0625 3.75 C11.76632812 4.96236328 11.76632812 4.96236328 12.484375 6.19921875 C13.23460937 7.58560547 13.23460937 7.58560547 14 9 C15.2664151 11.19006082 16.53729521 13.37754546 17.8125 15.5625 C18.68841797 17.11130859 18.68841797 17.11130859 19.58203125 18.69140625 C20.04996094 19.45324219 20.51789063 20.21507812 21 21 C21.33 21 21.66 21 22 21 C22.11593506 20.43490723 22.23187012 19.86981445 22.35131836 19.28759766 C22.87715296 16.73279309 23.40727295 14.1788964 23.9375 11.625 C24.11990234 10.73554687 24.30230469 9.84609375 24.49023438 8.9296875 C24.66748047 8.07890625 24.84472656 7.228125 25.02734375 6.3515625 C25.18968506 5.56604004 25.35202637 4.78051758 25.51928711 3.97119141 C26 2 26 2 27 0 C29.64 0 32.28 0 35 0 C34.45076707 8.17188927 33.1570069 16.04732091 31.5 24.0625 C31.27441406 25.18849609 31.04882812 26.31449219 30.81640625 27.47460938 C29.1409337 35.7181326 29.1409337 35.7181326 28 38 C23.07359892 38.95070898 23.07359892 38.95070898 20 38 C17.00546197 34.71285638 15.0646261 30.91749568 13 27 C12.41605469 25.95070313 11.83210938 24.90140625 11.23046875 23.8203125 C9.7924794 21.22721696 8.38450071 18.62192991 7 16 C6.88406494 16.59538574 6.76812988 17.19077148 6.64868164 17.80419922 C6.12296202 20.49506396 5.59278705 23.1850318 5.0625 25.875 C4.88009766 26.81214844 4.69769531 27.74929688 4.50976562 28.71484375 C4.33251953 29.61074219 4.15527344 30.50664063 3.97265625 31.4296875 C3.81031494 32.25710449 3.64797363 33.08452148 3.48071289 33.93701172 C3 36 3 36 2 38 C-0.97 38 -3.94 38 -7 38 C-5.2977958 25.22076551 -2.58226388 12.62358142 0 0 Z " fill="#AFCE35" transform="translate(479,537)"/>
<path d="M0 0 C2.50846444 -0.02155156 4.77633041 0.17506606 7.23364258 0.66455078 C9.74223163 9.00315686 11.95423551 17.38562955 13.98364258 25.85205078 C14.20624756 26.77268311 14.42885254 27.69331543 14.65820312 28.6418457 C14.86356689 29.50914307 15.06893066 30.37644043 15.28051758 31.27001953 C15.46453125 32.04498779 15.64854492 32.81995605 15.83813477 33.6184082 C16.23364258 35.66455078 16.23364258 35.66455078 16.23364258 38.66455078 C13.26364258 38.66455078 10.29364258 38.66455078 7.23364258 38.66455078 C6.57364258 36.02455078 5.91364258 33.38455078 5.23364258 30.66455078 C-0.70635742 30.66455078 -6.64635742 30.66455078 -12.76635742 30.66455078 C-13.75635742 33.13955078 -13.75635742 33.13955078 -14.76635742 35.66455078 C-15.42635742 36.65455078 -16.08635742 37.64455078 -16.76635742 38.66455078 C-18.93041992 38.95751953 -18.93041992 38.95751953 -21.39135742 38.85205078 C-22.20862305 38.82498047 -23.02588867 38.79791016 -23.86791992 38.77001953 C-24.4944043 38.73521484 -25.12088867 38.70041016 -25.76635742 38.66455078 C-24.43478915 35.06751432 -22.82945361 31.97294605 -20.75463867 28.75048828 C-20.16102539 27.82365234 -19.56741211 26.89681641 -18.95581055 25.94189453 C-18.33641602 24.98412109 -17.71702148 24.02634766 -17.07885742 23.03955078 C-16.47879883 22.10498047 -15.87874023 21.17041016 -15.26049805 20.20751953 C-14.04745382 18.31824549 -12.82827599 16.43289573 -11.60302734 14.55151367 C-10.34122175 12.56814918 -9.12191814 10.55730023 -7.93945312 8.52563477 C-7.34865967 7.52604736 -6.75786621 6.52645996 -6.14916992 5.49658203 C-5.6285498 4.58626221 -5.10792969 3.67594238 -4.5715332 2.73803711 C-2.76635742 0.66455078 -2.76635742 0.66455078 0 0 Z " fill="#AFCE35" transform="translate(655.766357421875,536.33544921875)"/>
<path d="M0 0 C2.97 0 5.94 0 9 0 C8.67 4.95 8.34 9.9 8 15 C9.33804687 13.75283203 9.33804687 13.75283203 10.703125 12.48046875 C11.88532392 11.38271261 13.06762074 10.2850619 14.25 9.1875 C14.83652344 8.64029297 15.42304688 8.09308594 16.02734375 7.52929688 C17.67207604 6.00468549 19.33202469 4.49909681 21 3 C21.680625 2.38125 22.36125 1.7625 23.0625 1.125 C25.71496563 -0.41514133 27.71049287 -0.29605383 30.75 -0.1875 C31.73484375 -0.16042969 32.7196875 -0.13335938 33.734375 -0.10546875 C34.48203125 -0.07066406 35.2296875 -0.03585937 36 0 C34.85221336 1.14778664 33.70409645 2.29524421 32.5546875 3.44140625 C31.47139432 4.52742127 30.39367641 5.61901408 29.3203125 6.71484375 C25.70736378 10.3839939 22.01185546 13.7709456 18 17 C19.57263975 21.53646083 21.97744683 25.22858064 24.625 29.1875 C29 35.72986963 29 35.72986963 29 38 C25.39110936 38.88150356 22.57794797 39.09367428 19 38 C15.33553076 34.02434596 12.66547164 29.68710956 10 25 C6.9541371 26.50049874 5.3028564 27.34363886 3.85546875 30.48046875 C3.63503906 31.37378906 3.41460937 32.26710938 3.1875 33.1875 C2.95417969 34.08855469 2.72085937 34.98960937 2.48046875 35.91796875 C2.32191406 36.60503906 2.16335938 37.29210937 2 38 C-0.97 38 -3.94 38 -7 38 C-5.2977958 25.22076551 -2.58226388 12.62358142 0 0 Z " fill="#AECD35" transform="translate(421,537)"/>
<path d="M0 0 C0 0.66 0 1.32 0 2 C-1.62626404 3.38232443 -3.2925002 4.71937515 -5 6 C-9.75 4.125 -9.75 4.125 -12 3 C-16.64304187 2.43354889 -20.12513117 2.57876686 -24.375 4.625 C-28.15367982 8.04380555 -29.75536977 11.00218648 -30.375 16.0625 C-29.94004141 19.46967563 -29.14257006 21.32178743 -27 24 C-24.06152782 25.0259321 -21.34308567 25.10798655 -18.25 25.0625 C-17.05117188 25.04896484 -17.05117188 25.04896484 -15.828125 25.03515625 C-15.22484375 25.02355469 -14.6215625 25.01195312 -14 25 C-13.86722656 24.21753906 -13.73445312 23.43507813 -13.59765625 22.62890625 C-13.42105469 21.61699219 -13.24445312 20.60507812 -13.0625 19.5625 C-12.88847656 18.55316406 -12.71445312 17.54382813 -12.53515625 16.50390625 C-12 14 -12 14 -11 13 C-8.32941149 12.85884839 -5.67567762 12.95752893 -3 13 C-3.31659598 15.59307181 -3.67597688 18.16722123 -4.0625 20.75 C-4.18915039 21.84441406 -4.18915039 21.84441406 -4.31835938 22.9609375 C-5.16326518 28.27177396 -5.16326518 28.27177396 -7.57763672 30.37304688 C-14.36221849 34.32134861 -21.70229084 35.39788292 -29.32421875 33.38671875 C-33.91031064 31.40377997 -36.7483453 28.64573842 -39.15625 24.27734375 C-41.17916921 18.81733495 -40.54207739 13.77680921 -38.875 8.3125 C-34.86069661 1.22056401 -30.66318218 -3.36065779 -22.625 -5.6875 C-13.62322454 -6.75913994 -7.35109168 -5.60083176 0 0 Z " fill="#ADCC35" transform="translate(557,542)"/>
<path d="M0 0 C9.57 0 19.14 0 29 0 C28.67 2.31 28.34 4.62 28 7 C18.1 7.495 18.1 7.495 8 8 C7.67 9.98 7.34 11.96 7 14 C12.61 14.33 18.22 14.66 24 15 C23.34 17.31 22.68 19.62 22 22 C16.06 22 10.12 22 4 22 C3.67 24.97 3.34 27.94 3 31 C9.6 31 16.2 31 23 31 C23 32.98 23 34.96 23 37 C22 38 22 38 19.22436523 38.11352539 C18.01466064 38.10828857 16.80495605 38.10305176 15.55859375 38.09765625 C14.25341797 38.09443359 12.94824219 38.09121094 11.60351562 38.08789062 C10.2148431 38.07953401 8.82617123 38.07106905 7.4375 38.0625 C6.04492344 38.05748666 4.65234519 38.05292347 3.25976562 38.04882812 C-0.1601987 38.03699434 -3.58007844 38.0205088 -7 38 C-6.44324191 29.61314294 -4.75521566 21.56748058 -2.9375 13.375 C-1.968125 8.96125 -0.99875 4.5475 0 0 Z " fill="#B0CF34" transform="translate(715,537)"/>
<path d="M0 0 C1.32 0 2.64 0 4 0 C4 3.63 4 7.26 4 11 C4.79664063 10.2059375 5.59328125 9.411875 6.4140625 8.59375 C7.48362193 7.56171897 8.55397671 6.53051177 9.625 5.5 C10.40810547 4.71302734 10.40810547 4.71302734 11.20703125 3.91015625 C14.08140343 1.17772838 15.32515277 0.06826041 19.3984375 -0.34375 C20.25695312 -0.2303125 21.11546875 -0.116875 22 0 C22 0.66 22 1.32 22 2 C20.29781633 3.49381291 18.53677109 4.92097016 16.75 6.3125 C12.95169385 9.27176233 9.87706767 12.12965897 7 16 C7.63808594 16.69867188 8.27617187 17.39734375 8.93359375 18.1171875 C9.75988281 19.02726562 10.58617187 19.93734375 11.4375 20.875 C12.67306641 22.23238281 12.67306641 22.23238281 13.93359375 23.6171875 C16 26 16 26 17 28 C17.66 28 18.32 28 19 28 C20.29783493 26.18065459 21.50050832 24.29320773 22.66015625 22.3828125 C23.0100914 21.81045868 23.36002655 21.23810486 23.7205658 20.64840698 C24.84138049 18.8113334 25.95189244 16.96825842 27.0625 15.125 C27.81510894 13.88892919 28.56835621 12.6532468 29.32226562 11.41796875 C32.8212291 5.7986179 32.8212291 5.7986179 36 0 C37.65 0 39.3 0 41 0 C43.50863658 5.45131879 45.19438106 10.88192879 46.6875 16.6875 C46.91244141 17.52861328 47.13738281 18.36972656 47.36914062 19.23632812 C48.35930072 23.03144023 49 26.03100813 49 30 C47.35 29.67 45.7 29.34 44 29 C44 27.35 44 25.7 44 24 C41.22592351 24.03298902 38.45994071 24.10009079 35.6875 24.1875 C34.50897461 24.19620117 34.50897461 24.19620117 33.30664062 24.20507812 C31.09624276 24.28973166 29.13384465 24.41106689 27 25 C25.26925763 27.42950785 25.26925763 27.42950785 24 30 C19.8300162 31.4788527 16.20897782 31.26727385 12 30 C7.85470168 26.76358501 4.90887763 22.32470303 2 18 C1.34 21.63 0.68 25.26 0 29 C-1.65 29.33 -3.3 29.66 -5 30 C-3.87791788 19.83525606 -2.33636384 9.96848573 0 0 Z " fill="#A7C437" transform="translate(501,481)"/>
<path d="M0 0 C2.56314499 -0.08132187 5.12368418 -0.14064175 7.6875 -0.1875 C8.40873047 -0.21263672 9.12996094 -0.23777344 9.87304688 -0.26367188 C14.47207891 -0.32667231 17.37434807 0.11427704 21 3 C24.11402663 7.67103995 23.60051583 12.53024135 23 18 C21.1875 21.5625 21.1875 21.5625 19 24 C18.525625 24.5775 18.05125 25.155 17.5625 25.75 C13.06539232 29.34768615 8.2039634 29.2531752 2.6875 29.125 C1.94693359 29.11597656 1.20636719 29.10695313 0.44335938 29.09765625 C-1.37123467 29.07424213 -3.18566071 29.03837615 -5 29 C-4.49175795 22.59615021 -3.60797866 16.32301609 -2.5 10 C-2.36940186 9.245979 -2.23880371 8.49195801 -2.10424805 7.71508789 C-1.1258228 2.25164561 -1.1258228 2.25164561 0 0 Z " fill="#ABC936" transform="translate(617,482)"/>
<path d="M0 0 C10.89 0 21.78 0 33 0 C32.67 2.31 32.34 4.62 32 7 C28.04 7 24.08 7 20 7 C19.87625 8.26972656 19.7525 9.53945313 19.625 10.84765625 C19.03962646 16.10880401 18.06048394 21.25419262 17 26.4375 C16.82210937 27.33404297 16.64421875 28.23058594 16.4609375 29.15429688 C15.13149889 35.73700221 15.13149889 35.73700221 14 38 C11.03 38 8.06 38 5 38 C5.70969354 31.21304565 7.07557427 24.65576279 8.5625 18 C8.79646484 16.93910156 9.03042969 15.87820313 9.27148438 14.78515625 C9.84442407 12.18938865 10.42176423 9.59459298 11 7 C7.04 7 3.08 7 -1 7 C-0.67 4.69 -0.34 2.38 0 0 Z " fill="#B0CF34" transform="translate(677,537)"/>
<path d="M0 0 C2.37570543 -0.0816082 4.74855841 -0.14077222 7.125 -0.1875 C7.79015625 -0.21263672 8.4553125 -0.23777344 9.140625 -0.26367188 C13.8723325 -0.33325581 16.96355779 0.56463897 21 3 C22.64037395 4.64037395 22.24911331 6.49476841 22.3125 8.75 C22.2762165 12.37834995 22.12200473 13.79084903 20.25 17 C15.96628136 20.8077499 12.97770126 21.23955403 7.25 21.125 C5.49429687 21.09792969 5.49429687 21.09792969 3.703125 21.0703125 C2.81109375 21.04710937 1.9190625 21.02390625 1 21 C0.67 23.97 0.34 26.94 0 30 C-1.65 30 -3.3 30 -5 30 C-4.09599521 19.87514636 -2.00631735 9.95442068 0 0 Z " fill="#A7C437" transform="translate(414,481)"/>
<path d="M0 0 C4.33460571 2.49217577 7.37862946 5.88225892 9.625 10.375 C10.23142008 16.83685329 10.35918605 22.95491258 7.0390625 28.6875 C3.89330445 32.44155381 -1.59846292 36.11532387 -6.546875 36.578125 C-13.53856618 36.70524666 -17.63831518 35.72982182 -23.0625 31.0625 C-28.0154315 25.30639042 -28.93514553 20.68892334 -28.72265625 13.21484375 C-28.06652144 7.85518074 -25.18425258 4.98045614 -21.3125 1.5625 C-15.25443453 -2.94882535 -6.84143853 -3.14054607 0 0 Z M-22.25 8.5 C-24.37619203 13.93360186 -24.10831165 19.29085109 -22.1875 24.75 C-20.03336487 27.86978191 -18.74026673 29.55214719 -15.375 31.375 C-10.03875608 32.17339985 -5.76337874 32.04439689 -0.875 29.6875 C3.51943074 25.62265156 4.81157624 22.91110427 5.0625 16.9375 C4.9092571 11.98708793 4.13162851 9.06618791 0.625 5.375 C-7.45370266 -0.26130418 -15.87860994 1.27909126 -22.25 8.5 Z " fill="#F2F2F5" transform="translate(915.375,261.625)"/>
<path d="M0 0 C0.91168945 0.10465576 1.82337891 0.20931152 2.76269531 0.31713867 C4.90263482 6.39907202 6.71658603 12.5470998 8.45019531 18.75463867 C8.67666748 19.5601416 8.90313965 20.36564453 9.13647461 21.19555664 C10.76269531 27.07185816 10.76269531 27.07185816 10.76269531 29.31713867 C9.11269531 29.31713867 7.46269531 29.31713867 5.76269531 29.31713867 C5.43269531 27.33713867 5.10269531 25.35713867 4.76269531 23.31713867 C1.98861882 23.35012769 -0.77736398 23.41722947 -3.54980469 23.50463867 C-4.33548828 23.51043945 -5.12117188 23.51624023 -5.93066406 23.5222168 C-8.14274446 23.60693477 -10.10186408 23.72796323 -12.23730469 24.31713867 C-14.16374051 26.73398647 -14.16374051 26.73398647 -15.23730469 29.31713867 C-17.92480469 29.62963867 -17.92480469 29.62963867 -20.23730469 29.31713867 C-17.92703424 23.1013773 -14.42490031 17.64928946 -10.98730469 12.00463867 C-10.33117187 10.88250977 -9.67503906 9.76038086 -8.99902344 8.60424805 C-8.350625 7.54399414 -7.70222656 6.48374023 -7.03417969 5.39135742 C-6.44991211 4.4177124 -5.86564453 3.44406738 -5.26367188 2.44091797 C-3.23730469 0.31713867 -3.23730469 0.31713867 0 0 Z " fill="#A8C537" transform="translate(453.2373046875,481.682861328125)"/>
<path d="M0 0 C12.73140172 -0.7752545 12.73140172 -0.7752545 17.375 2.0625 C19.47590322 5.86028659 19.7278553 7.70565371 19 12 C17.1890676 16.16667921 15.02361749 19.20107904 11.4375 22 C6.3073587 23.49240474 1.30416155 23.23173521 -4 23 C-3.29885571 17.81970092 -2.41920353 12.69648064 -1.4375 7.5625 C-1.29892578 6.83095703 -1.16035156 6.09941406 -1.01757812 5.34570312 C-0.6797819 3.56353682 -0.34009012 1.78172998 0 0 Z " fill="#292660" transform="translate(282,545)"/>
<path d="M0 0 C2.3456064 1.45780699 3.34963789 2.72363847 5 5 C3.25 6.125 3.25 6.125 1 7 C-0.34246312 6.35191436 -1.67432801 5.68177416 -3 5 C-7.98245604 4.54704945 -11.05923481 4.8254947 -15 8 C-18.21953881 11.77463171 -18.34970465 15.15448771 -18.3984375 19.9140625 C-17.88876394 22.58235351 -17.2238322 23.45108631 -15 25 C-12.59281136 25.43718957 -12.59281136 25.43718957 -10 25.3125 C-8.700625 25.30669922 -8.700625 25.30669922 -7.375 25.30078125 C-4.73582063 25.1458217 -4.73582063 25.1458217 -2 23 C-1.27034634 20.43717258 -1.27034634 20.43717258 -1 18 C-3.64 18 -6.28 18 -9 18 C-9 16.35 -9 14.7 -9 13 C-4.71 13 -0.42 13 4 13 C2.92918597 24.6259809 2.92918597 24.6259809 2 27 C-2.23012603 30.20872886 -7.01014093 31.34531098 -12.25 31.0625 C-16.86121526 30.37404484 -19.14490108 28.77609857 -22 25 C-23.99483429 21.01033143 -23.50921736 16.33712721 -23 12 C-21.14114464 6.95691708 -17.95630711 3.00686729 -13.09375 0.62890625 C-8.74128338 -0.67845779 -4.45835003 -0.8312178 0 0 Z " fill="#A7C537" transform="translate(577,481)"/>
<path d="M0 0 C7.26 0 14.52 0 22 0 C21.67 1.65 21.34 3.3 21 5 C15.39 5 9.78 5 4 5 C3.67 7.64 3.34 10.28 3 13 C8.28 13 13.56 13 19 13 C18.67 14.32 18.34 15.64 18 17 C12.72 17.33 7.44 17.66 2 18 C1.67 20.64 1.34 23.28 1 26 C6.61 26 12.22 26 18 26 C17.67 27.32 17.34 28.64 17 30 C9.74 30 2.48 30 -5 30 C-4.35536596 25.93730638 -3.70934127 21.87484226 -3.0625 17.8125 C-2.88009766 16.66201172 -2.69769531 15.51152344 -2.50976562 14.32617188 C-2.33251953 13.21435547 -2.15527344 12.10253906 -1.97265625 10.95703125 C-1.72914429 9.42526245 -1.72914429 9.42526245 -1.48071289 7.86254883 C-1.03903678 5.23245621 -0.52302614 2.61513071 0 0 Z " fill="#A6C338" transform="translate(589,481)"/>
<path d="M0 0 C2.97 0 5.94 0 9 0 C8.85900879 0.76030518 8.71801758 1.52061035 8.57275391 2.30395508 C7.92330686 5.80676713 7.27415178 9.30963322 6.625 12.8125 C6.40328125 14.00810547 6.1815625 15.20371094 5.953125 16.43554688 C4.62171237 23.62125918 3.30301133 30.80908234 2 38 C-1.3 38 -4.6 38 -8 38 C-7.23716976 33.72769795 -6.46325251 29.45747297 -5.6875 25.1875 C-5.47416016 23.99189453 -5.26082031 22.79628906 -5.04101562 21.56445312 C-3.70715231 14.25806748 -2.09854297 7.12556117 0 0 Z " fill="#AECD35" transform="translate(462,537)"/>
<path d="M0 0 C2.97 0 5.94 0 9 0 C7.2977958 12.77923449 4.58226388 25.37641858 2 38 C-1.3 38 -4.6 38 -8 38 C-7.02515646 32.90893943 -6.04647821 27.81863699 -5.06420898 22.72900391 C-4.73046555 20.99678614 -4.39777848 19.26436451 -4.06616211 17.53173828 C-3.58984262 15.04405471 -3.1097524 12.55712454 -2.62890625 10.0703125 C-2.48095108 9.29317902 -2.33299591 8.51604553 -2.18055725 7.71536255 C-1.11387171 2.22774341 -1.11387171 2.22774341 0 0 Z " fill="#AFCE35" transform="translate(360,537)"/>
<path d="M0 0 C1.91541138 -0.10841951 3.83259773 -0.18578079 5.75 -0.25 C7.35101562 -0.31960938 7.35101562 -0.31960938 8.984375 -0.390625 C12 0 12 0 14.359375 1.7734375 C16.36181793 4.49103861 16.56730273 6.62873919 16.38671875 9.97265625 C15.5587357 14.31329466 13.09847245 17.0307596 9.875 19.875 C5.61408397 21.54231497 1.52032035 21.23698767 -3 21 C-2.29411026 13.94110263 -1.21786614 6.98795036 0 0 Z " fill="#292560" transform="translate(620,486)"/>
<path d="M0 0 C1.32 0 2.64 0 4 0 C4 3.63 4 7.26 4 11 C4.79664063 10.2059375 5.59328125 9.411875 6.4140625 8.59375 C7.48362193 7.56171897 8.55397671 6.53051177 9.625 5.5 C10.40810547 4.71302734 10.40810547 4.71302734 11.20703125 3.91015625 C14.08140343 1.17772838 15.32515277 0.06826041 19.3984375 -0.34375 C20.25695312 -0.2303125 21.11546875 -0.116875 22 0 C22 0.66 22 1.32 22 2 C20.29781633 3.49381291 18.53677109 4.92097016 16.75 6.3125 C12.95169385 9.27176233 9.87706767 12.12965897 7 16 C7.61488281 16.67546875 8.22976563 17.3509375 8.86328125 18.046875 C9.67152344 18.93890625 10.47976563 19.8309375 11.3125 20.75 C12.11300781 21.63171875 12.91351562 22.5134375 13.73828125 23.421875 C15.60916911 25.55449328 17.34084286 27.70187943 19 30 C15.83984375 30.375 15.83984375 30.375 12 30 C9.80198995 27.99039081 8.2812098 26.35163991 6.5625 24 C6.11712891 23.42765625 5.67175781 22.8553125 5.21289062 22.265625 C4.12246292 20.8586215 3.05848388 19.43118947 2 18 C1.34 21.63 0.68 25.26 0 29 C-1.65 29.33 -3.3 29.66 -5 30 C-3.87791788 19.83525606 -2.33636384 9.96848573 0 0 Z " fill="#A8C637" transform="translate(501,481)"/>
<path d="M0 0 C2.41534564 1.08453755 3.9518276 2.27522324 6 4 C5.01 5.485 5.01 5.485 4 7 C2.9790625 6.505 2.9790625 6.505 1.9375 6 C-1.65883162 4.7757169 -4.21670923 4.60175887 -8 5 C-11.70390021 7.02666238 -13.65363011 8.48044516 -16 12 C-16.3539686 14.41004637 -16.3539686 14.41004637 -16.3125 17 C-16.32925781 17.86625 -16.34601563 18.7325 -16.36328125 19.625 C-16.17350469 22.03090251 -16.17350469 22.03090251 -14.75390625 23.79296875 C-11.50220901 26.03077375 -7.78851212 25.40472721 -4 25 C-1.06919326 24.13346586 -1.06919326 24.13346586 1 23 C1.66 24.32 2.32 25.64 3 27 C-2.53128412 30.29523309 -6.5330051 31.83445095 -13 31 C-16.94807909 28.91422237 -19.65386161 26.78887867 -22 23 C-22.86254497 17.8558129 -22.64111289 13.33154215 -20.375 8.625 C-14.16383613 1.76002941 -9.39038562 -1.10559586 0 0 Z " fill="#A6C338" transform="translate(489,481)"/>
<path d="M0 0 C1.60488281 -0.02126953 1.60488281 -0.02126953 3.2421875 -0.04296875 C6.125 0.1875 6.125 0.1875 9.125 2.1875 C9.41571481 5.60339896 9.21219244 7.92592267 8.125 11.1875 C8.76938717 12.86290664 9.43746699 14.52933216 10.125 16.1875 C10.125 17.5075 10.125 18.8275 10.125 20.1875 C8.475 20.1875 6.825 20.1875 5.125 20.1875 C4.7125 19.053125 4.3 17.91875 3.875 16.75 C2.55814602 13.09206616 2.55814602 13.09206616 -0.0625 12.25 C-0.660625 12.229375 -1.25875 12.20875 -1.875 12.1875 C-1.875 14.8275 -1.875 17.4675 -1.875 20.1875 C-3.525 20.1875 -5.175 20.1875 -6.875 20.1875 C-6.90388514 17.04168577 -6.92175923 13.89590531 -6.9375 10.75 C-6.94587891 9.85216797 -6.95425781 8.95433594 -6.96289062 8.02929688 C-6.96611328 7.17529297 -6.96933594 6.32128906 -6.97265625 5.44140625 C-6.98051147 4.25526733 -6.98051147 4.25526733 -6.98852539 3.04516602 C-6.73725859 -1.06642347 -3.38340567 0.02028421 0 0 Z " fill="#ECEBF1" transform="translate(904.875,268.8125)"/>
<path d="M0 0 C2.875 0.5625 2.875 0.5625 4.75 1.75 C6.23178797 4.13732506 6.01351491 5.79220183 5.875 8.5625 C6.205 9.5525 6.535 10.5425 6.875 11.5625 C6.11685725 13.47433824 5.35657357 15.3854019 4.578125 17.2890625 C3.42284542 21.02446646 3.63327352 24.6948764 3.875 28.5625 C-1.50942118 23.65317481 -6.83731869 17.7087585 -8.3125 10.375 C-8.13421135 6.74979753 -8.05359492 5.8228816 -6.0625 3.0625 C-3.125 0.5625 -3.125 0.5625 0 0 Z " fill="#312D6A" transform="translate(437.125,220.4375)"/>
<path d="M0 0 C1.58246707 -0.08153933 3.16616273 -0.13943557 4.75 -0.1875 C6.07257812 -0.23970703 6.07257812 -0.23970703 7.421875 -0.29296875 C10.50002806 0.05682137 11.80182488 0.84709622 14 3 C14.5625 5.9375 14.5625 5.9375 14 9 C12.1875 11.375 12.1875 11.375 9 13 C5.30775811 13.32151545 1.69562961 13.23299941 -2 13 C-1.85769192 11.58297487 -1.71099254 10.1663904 -1.5625 8.75 C-1.48128906 7.96109375 -1.40007813 7.1721875 -1.31640625 6.359375 C-1.02365007 4.17635361 -0.57935581 2.1226818 0 0 Z " fill="#2B2960" transform="translate(759,544)"/>
<path d="M0 0 C2.90118219 0.04619717 4.56467501 0.19607683 7.25 1.375 C8.6875 3.25 8.6875 3.25 9.1875 6.1875 C8.57048287 9.96672991 7.68812675 10.92997898 4.6875 13.25 C1.671875 13.640625 1.671875 13.640625 -1.5625 13.5 C-2.64015625 13.46390625 -3.7178125 13.4278125 -4.828125 13.390625 C-6.05789063 13.32101562 -6.05789063 13.32101562 -7.3125 13.25 C-7.00490822 11.27006459 -6.6912932 9.29106401 -6.375 7.3125 C-6.20097656 6.21035156 -6.02695312 5.10820313 -5.84765625 3.97265625 C-5.02353686 -0.22012632 -4.00565785 0.07867086 0 0 Z " fill="#2A2760" transform="translate(332.3125,543.75)"/>
<path d="M0 0 C1.08152344 -0.01417969 2.16304688 -0.02835937 3.27734375 -0.04296875 C6.0625 0.1875 6.0625 0.1875 8.0625 2.1875 C7.83635405 8.40651366 7.83635405 8.40651366 5.3671875 10.8984375 C2.485444 12.51026014 0.59196065 12.49212359 -2.6875 12.375 C-3.67234375 12.34792969 -4.6571875 12.32085937 -5.671875 12.29296875 C-6.41953125 12.25816406 -7.1671875 12.22335937 -7.9375 12.1875 C-7.79712479 10.37456911 -7.65005111 8.5621557 -7.5 6.75 C-7.41878906 5.74066406 -7.33757812 4.73132813 -7.25390625 3.69140625 C-6.66302676 -0.98456602 -4.22573606 0.02512328 0 0 Z " fill="#2B2960" transform="translate(423.9375,485.8125)"/>
<path d="M0 0 C3.0625 0.3125 3.0625 0.3125 5 1.4375 C6.0625 3.3125 6.0625 3.3125 5.875 6.375 C5.0625 9.3125 5.0625 9.3125 3.0625 11.3125 C-3.51442308 10.73557692 -3.51442308 10.73557692 -4.9375 9.3125 C-5.125 5.875 -5.125 5.875 -4.9375 2.3125 C-2.9375 0.3125 -2.9375 0.3125 0 0 Z " fill="#ECECF1" transform="translate(436.9375,220.6875)"/>
<path d="M0 0 C0.66 0.33 1.32 0.66 2 1 C3.26761762 5.29581527 4 8.50944298 4 13 C0.37 13 -3.26 13 -7 13 C-5.58001139 9.45002848 -4.3878411 6.81270066 -2.375 3.6875 C-1.92898438 2.99011719 -1.48296875 2.29273438 -1.0234375 1.57421875 C-0.51683594 0.79498047 -0.51683594 0.79498047 0 0 Z " fill="#2E2C5F" transform="translate(452,487)"/>
<path d="M0 0 C2.79024052 4.18536078 3.10154594 8.05850265 4 13 C0.04 13 -3.92 13 -8 13 C-6.85605098 11.01974361 -5.70978896 9.04082322 -4.5625 7.0625 C-3.92441406 5.96035156 -3.28632812 4.85820312 -2.62890625 3.72265625 C-1 1 -1 1 0 0 Z " fill="#2C2A5F" transform="translate(539,487)"/>
<path d="M0 0 C2.625 0.375 2.625 0.375 5 1 C5.33 1.99 5.66 2.98 6 4 C6.99 4 7.98 4 9 4 C8.67 4.99 8.34 5.98 8 7 C6.68 7 5.36 7 4 7 C4.33 8.65 4.66 10.3 5 12 C1.56404834 10.47291037 -1.11912454 8.40072955 -4 6 C-2.84826645 3.53199953 -1.95216435 1.95216435 0 0 Z " fill="#C2C1D3" transform="translate(441,210)"/>
<path d="M0 0 C2.79024052 4.18536078 3.10154594 8.05850265 4 13 C0.04 13 -3.92 13 -8 13 C-6.85605098 11.01974361 -5.70978896 9.04082322 -4.5625 7.0625 C-3.92441406 5.96035156 -3.28632812 4.85820313 -2.62890625 3.72265625 C-1 1 -1 1 0 0 Z " fill="#2C2960" transform="translate(656,547)"/>
<path d="M0 0 C0.99 0 1.98 0 3 0 C2.34 1.65 1.68 3.3 1 5 C1.5775 4.484375 2.155 3.96875 2.75 3.4375 C5 2 5 2 7.25 2.3125 C7.8275 2.539375 8.405 2.76625 9 3 C9.25 5.3125 9.25 5.3125 9 8 C7 9.8125 7 9.8125 5 11 C5 8 5 8 7 5 C6.443125 5.515625 5.88625 6.03125 5.3125 6.5625 C3 8 3 8 0.25 7.6875 C-0.4925 7.460625 -1.235 7.23375 -2 7 C-1.125 2.25 -1.125 2.25 0 0 Z " fill="#E2E1EA" transform="translate(446,201)"/>
<path d="M0 0 C1.65 0 3.3 0 5 0 C5.38218767 1.65614657 5.71395102 3.32457024 6 5 C5 6 5 6 2.4375 6.0625 C1.2309375 6.0315625 1.2309375 6.0315625 0 6 C0 4.02 0 2.04 0 0 Z " fill="#4C497E" transform="translate(903,272)"/>
<path d="M0 0 C2.0625 0.4375 2.0625 0.4375 4 1 C3.67 2.65 3.34 4.3 3 6 C1.35 5.67 -0.3 5.34 -2 5 C-1.125 1.125 -1.125 1.125 0 0 Z " fill="#332F6B" transform="translate(436,223)"/>
<path d="M0 0 C2.625 0.375 2.625 0.375 5 1 C4.67 2.32 4.34 3.64 4 5 C3.67 4.34 3.34 3.68 3 3 C-0.465 4.485 -0.465 4.485 -4 6 C-2.84826645 3.53199953 -1.95216435 1.95216435 0 0 Z " fill="#EDEDF2" transform="translate(441,210)"/>
<path d="M0 0 C1.98 0.495 1.98 0.495 4 1 C4.25 3.3125 4.25 3.3125 4 6 C2 7.8125 2 7.8125 0 9 C0 6 0 6 2 3 C1.34 3 0.68 3 0 3 C0 2.01 0 1.02 0 0 Z " fill="#F2F2F5" transform="translate(451,203)"/>
<path d="M0 0 C0.6875 1.75 0.6875 1.75 1 4 C-0.3125 6.25 -0.3125 6.25 -2 8 C-2.66 8 -3.32 8 -4 8 C-4 7.34 -4 6.68 -4 6 C-4.66 5.67 -5.32 5.34 -6 5 C-5.01 4.67 -4.02 4.34 -3 4 C-2.67 3.34 -2.34 2.68 -2 2 C-1.34 2 -0.68 2 0 2 C0 1.34 0 0.68 0 0 Z " fill="#CFCFDD" transform="translate(442,224)"/>
<path d="M0 0 C1.65 0.33 3.3 0.66 5 1 C5.33 2.32 5.66 3.64 6 5 C5.34 5 4.68 5 4 5 C4 4.34 4 3.68 4 3 C2.35 2.67 0.7 2.34 -1 2 C-0.67 1.34 -0.34 0.68 0 0 Z " fill="#F7F7F9" transform="translate(436,221)"/>
</svg>
