<?xml version="1.0" encoding="UTF-8"?>
<svg version="1.1" xmlns="http://www.w3.org/2000/svg" width="948" height="634">
<path d="M0 0 C312.84 0 625.68 0 948 0 C948 209.22 948 418.44 948 634 C635.16 634 322.32 634 0 634 C0 424.78 0 215.56 0 0 Z " fill="#262262" transform="translate(0,0)"/>
<path d="M0 0 C0.6909375 0.52851563 1.381875 1.05703125 2.09375 1.6015625 C19.94925188 15.98516124 29.54232249 39.48146817 32.3359375 61.66796875 C35.28616911 89.29648911 30.23456289 121.37098874 12.63085938 143.73974609 C-2.69491055 162.02501041 -23.23127073 174.60353531 -47.14453125 177.72265625 C-52.32757921 178.09549962 -57.49205105 178.211555 -62.6875 178.25 C-63.64978516 178.25942627 -64.61207031 178.26885254 -65.60351562 178.27856445 C-71.96231048 178.24965092 -77.82603983 177.50699357 -84 176 C-84.66765381 175.83902832 -85.33530762 175.67805664 -86.02319336 175.51220703 C-109.27839125 169.54902782 -127.63159114 155.51308035 -140.14233398 135.02807617 C-156.59252915 107.04237858 -156.59131508 75.95262508 -149.3125 45.1875 C-142.43614077 21.35466402 -126.76100058 1.41996113 -105.109375 -10.60546875 C-71.17955048 -26.7270959 -29.33511809 -23.95701311 0 0 Z " fill="#FDFDFD" transform="translate(226,204)"/>
<path d="M0 0 C4.58349785 3.62802549 8.61597294 7.76689152 12.5859375 12.046875 C13.36195313 11.18964844 14.13796875 10.33242187 14.9375 9.44921875 C24.61610062 -0.91713969 35.45092155 -9.08803884 50.19897461 -10.1394043 C53.10171589 -10.22128876 55.99469631 -10.2260342 58.8984375 -10.203125 C59.86716797 -10.21085938 60.83589844 -10.21859375 61.83398438 -10.2265625 C79.3185665 -10.17990584 94.47277994 -4.75496681 107.5859375 7.046875 C120.1211134 20.3012823 124.69021621 36.59296638 124.77880859 54.57470703 C124.79107483 55.96870728 124.79107483 55.96870728 124.80358887 57.39086914 C124.82826824 60.4454689 124.84490621 63.50002304 124.859375 66.5546875 C124.86469868 67.60115322 124.87002235 68.64761894 124.87550735 69.72579575 C124.90215198 75.25582901 124.92156183 80.78584029 124.93603516 86.31591797 C124.94941543 90.89033825 124.97735568 95.4643168 125.01806641 100.03857422 C125.0672935 105.57097579 125.09214225 111.10297455 125.09926224 116.63558578 C125.10598251 118.74155968 125.1212246 120.84752429 125.14515305 122.95337296 C125.17669882 125.89534047 125.17685827 128.83574049 125.16943359 131.77783203 C125.18583893 132.64652924 125.20224426 133.51522644 125.21914673 134.4102478 C125.17402696 138.77397386 124.99169307 140.5194928 122.24636841 144.08773804 C118.91508766 146.54088773 117.03943654 146.66581009 112.9296875 146.640625 C111.65996094 146.63804687 110.39023437 146.63546875 109.08203125 146.6328125 C107.76332031 146.60445312 106.44460938 146.57609375 105.0859375 146.546875 C103.76722656 146.54945313 102.44851563 146.55203125 101.08984375 146.5546875 C89.98068073 146.44190412 89.98068073 146.44190412 85.5859375 143.046875 C84.36170935 139.37419056 84.4334759 135.98220998 84.42822266 132.1574707 C84.42314194 131.35367981 84.41806122 130.54988892 84.41282654 129.72174072 C84.40212072 127.97353011 84.39350137 126.22530577 84.38670731 124.47707558 C84.37488569 121.69576105 84.35541762 118.91459953 84.33358765 116.13334656 C84.27213031 108.22396071 84.21823561 100.314586 84.18457031 92.4050293 C84.16341539 87.56439833 84.1279361 82.72403951 84.08381271 77.8835659 C84.06980025 76.0519148 84.06096426 74.22021546 84.05775833 72.38851357 C84.47771086 50.27587207 84.47771086 50.27587207 74.91015625 31.21875 C74.37003906 30.74953125 73.82992187 30.2803125 73.2734375 29.796875 C72.74105469 29.31734375 72.20867187 28.8378125 71.66015625 28.34375 C64.52093411 23.88005555 55.66917394 24.35427665 47.5859375 25.046875 C41.38558608 26.63988837 36.94617203 30.68100048 33.5859375 36.046875 C32.29419813 38.98860959 31.35158161 41.92921627 30.5859375 45.046875 C30.3255368 46.07923279 30.3255368 46.07923279 30.05987549 47.13244629 C29.42008024 51.06679571 29.44983346 54.9091567 29.45996094 58.88867188 C29.4580928 59.76894547 29.45622467 60.64921906 29.45429993 61.5561676 C29.45030479 63.46261808 29.4482219 65.36907333 29.44783783 67.27552795 C29.44441435 71.32906903 29.42304684 75.38245083 29.40260696 79.43593597 C29.36460801 86.97896003 29.33332698 94.5218106 29.33544922 102.06494141 C29.33623553 107.31641435 29.31291202 112.56729932 29.2735672 117.81861877 C29.26309808 119.81845965 29.26158986 121.81836831 29.26921844 123.81822205 C29.27882442 126.61449054 29.25769046 129.40897119 29.22949219 132.20507812 C29.23968887 133.03016373 29.24988556 133.85524933 29.26039124 134.70533752 C29.18354641 138.95405394 28.94209388 140.5875914 26.24934387 144.06004333 C22.85951632 146.58876625 20.87785029 146.6783094 16.67578125 146.67578125 C14.69674805 146.67868164 14.69674805 146.67868164 12.67773438 146.68164062 C11.65474243 146.66290894 11.65474243 146.66290894 10.61108398 146.64379883 C8.52516199 146.60940344 6.44346272 146.62316967 4.35742188 146.64257812 C-5.6675546 146.56904529 -5.6675546 146.56904529 -8.57846069 144.53291321 C-11.14531686 141.05650428 -10.96383827 137.89263393 -10.91235352 133.73681641 C-10.91787231 132.90040619 -10.92339111 132.06399597 -10.92907715 131.20223999 C-10.93839808 129.38639293 -10.93850152 127.5704805 -10.93048286 125.75462723 C-10.91783762 122.8685083 -10.9291613 119.983344 -10.94651794 117.09725952 C-10.97325792 111.99638267 -10.97881325 106.89573915 -10.97741699 101.7947998 C-10.97519303 93.66687121 -10.98967534 85.53923538 -11.03300285 77.41141891 C-11.04273931 74.58992504 -11.03417107 71.76890153 -11.02430725 68.94741821 C-11.04056247 54.85071355 -11.15295129 40.30798621 -21.7265625 29.734375 C-30.26954516 24.37017659 -38.95714963 23.82600002 -48.84765625 25.4453125 C-54.56539199 27.16174779 -58.15122563 31.19156603 -61.4140625 36.046875 C-64.7983642 42.90225537 -65.56418936 49.34670325 -65.58764648 56.8828125 C-65.5943335 57.77429993 -65.60102051 58.66578735 -65.60791016 59.58428955 C-65.62194642 61.51803225 -65.633845 63.45179137 -65.64385796 65.38555908 C-65.66028086 68.44508867 -65.68351792 71.50449604 -65.70875549 74.56396484 C-65.77950612 83.26198231 -65.83971867 91.96004867 -65.89086914 100.65820312 C-65.92263997 105.97967978 -65.96390635 111.30101403 -66.01106453 116.62237549 C-66.02709075 118.65095463 -66.03940945 120.67956654 -66.04797173 122.70819092 C-66.06011045 125.5425872 -66.08425297 128.37664771 -66.11108398 131.2109375 C-66.11167313 132.05054016 -66.11226227 132.89014282 -66.11286926 133.75518799 C-66.20477826 141.07342991 -66.20477826 141.07342991 -68.4140625 144.046875 C-73.19018995 147.23095996 -78.65285879 146.41878435 -84.23803711 146.41748047 C-86.34115606 146.42185336 -88.44217426 146.45817979 -90.54492188 146.49609375 C-91.88540951 146.5019625 -93.22590709 146.5059315 -94.56640625 146.5078125 C-95.78320068 146.51603027 -96.99999512 146.52424805 -98.25366211 146.53271484 C-102.01192325 145.95496748 -103.14722981 145.04065164 -105.4140625 142.046875 C-106.64249406 138.36158032 -106.56957586 134.95151734 -106.57519531 131.11328125 C-106.58016022 130.30455566 -106.58512512 129.49583008 -106.59024048 128.66259766 C-106.60487663 125.97818143 -106.61167272 123.29382464 -106.6171875 120.609375 C-106.62001488 119.68704071 -106.62284225 118.76470642 -106.62575531 117.81442261 C-106.64076763 112.9166434 -106.64997928 108.0188937 -106.65429688 103.12109375 C-106.65973046 98.11092661 -106.68364248 93.10103833 -106.71226883 88.09095764 C-106.73111594 84.2007577 -106.73611275 80.31062133 -106.73763275 76.42037964 C-106.7406193 74.57720443 -106.74850848 72.73402923 -106.76181793 70.89089966 C-106.92102761 47.11094312 -104.6130887 24.95220051 -87.6640625 6.859375 C-79.35736361 -1.03278613 -70.42973401 -5.14937749 -59.4140625 -7.953125 C-58.24359375 -8.30890625 -57.073125 -8.6646875 -55.8671875 -9.03125 C-37.1366593 -13.64750525 -15.91711558 -10.80260697 0 0 Z " fill="#FCFCFD" transform="translate(376.4140625,231.953125)"/>
<path d="M0 0 C2.49207695 2.17296953 4.81854691 4.42897112 7.125 6.796875 C7.81980469 7.45945313 8.51460937 8.12203125 9.23046875 8.8046875 C23.77342224 23.60080653 27.4436533 43.66300443 27.625 63.609375 C27.63571533 64.28720032 27.64643066 64.96502563 27.6574707 65.66339111 C27.6808233 67.61008947 27.66917066 69.5571107 27.65625 71.50390625 C27.65173828 72.6431958 27.64722656 73.78248535 27.64257812 74.95629883 C27.125 77.796875 27.125 77.796875 25.38134384 79.45186329 C22.82081122 80.97820262 21.46056308 81.16785045 18.50592041 81.15763855 C17.12195824 81.16382454 17.12195824 81.16382454 15.71003723 81.1701355 C14.20276314 81.15395676 14.20276314 81.15395676 12.66503906 81.13745117 C11.60131577 81.13788925 10.53759247 81.13832733 9.44163513 81.13877869 C5.92444527 81.13668809 2.40773163 81.11334361 -1.109375 81.08984375 C-3.54746236 81.08424878 -5.98555309 81.07997821 -8.42364502 81.07698059 C-14.8418305 81.06552413 -21.25981244 81.03604977 -27.67791748 81.00286865 C-34.22665656 80.9721852 -40.77542851 80.95847893 -47.32421875 80.94335938 C-60.17456603 80.91118108 -73.02477219 80.86055119 -85.875 80.796875 C-85.28123194 82.84342336 -84.67773811 84.88715113 -84.0703125 86.9296875 C-83.73531738 88.06809082 -83.40032227 89.20649414 -83.05517578 90.37939453 C-79.22008966 101.48480113 -72.57421751 107.98695293 -62.22265625 113.109375 C-42.87844025 120.58740749 -20.54015548 115.91453477 -2.1875 107.984375 C-0.79724609 107.365625 -0.79724609 107.365625 0.62109375 106.734375 C4.01472535 105.4637485 6.55277557 105.39094041 10.125 105.796875 C19.35461373 123.59945011 19.35461373 123.59945011 18.125 131.796875 C13.81679949 135.2261227 9.08038783 137.30761377 4 139.359375 C3.2486377 139.66383545 2.49727539 139.9682959 1.72314453 140.28198242 C-4.37906719 142.69953244 -10.41330172 144.58477308 -16.875 145.796875 C-18.38513672 146.10238281 -18.38513672 146.10238281 -19.92578125 146.4140625 C-28.7336529 147.89727964 -37.52209312 148.03522616 -46.4375 148.109375 C-47.64398193 148.12701904 -48.85046387 148.14466309 -50.09350586 148.1628418 C-72.86140866 148.14584737 -92.33087123 140.10281405 -108.75 124.421875 C-113.64524346 119.31317616 -117.48835323 113.99978593 -120.875 107.796875 C-121.32359375 106.9821875 -121.7721875 106.1675 -122.234375 105.328125 C-133.35244703 83.09198093 -133.23431688 59.73987976 -125.8125 36.46484375 C-118.38602594 16.78984477 -102.37441796 1.1503444 -83.58984375 -7.76171875 C-80.38339446 -9.07468766 -77.18583512 -10.18348375 -73.875 -11.203125 C-72.36679687 -11.68072266 -72.36679687 -11.68072266 -70.828125 -12.16796875 C-46.98875831 -18.4766792 -19.76248446 -15.14407776 0 0 Z " fill="#FCFCFD" transform="translate(645.875,233.203125)"/>
<path d="M0 0 C0.87694016 -0.0033284 1.75388031 -0.0066568 2.65739441 -0.01008606 C4.51776605 -0.01516015 6.37814683 -0.01749424 8.23852539 -0.01733398 C11.08299863 -0.01951403 13.92708017 -0.03764668 16.77148438 -0.05664062 C18.57682159 -0.05957574 20.38216065 -0.06155975 22.1875 -0.0625 C23.03866898 -0.06968552 23.88983795 -0.07687103 24.76679993 -0.08427429 C25.56410019 -0.08119766 26.36140045 -0.07812103 27.18286133 -0.07495117 C28.23090691 -0.0770887 28.23090691 -0.0770887 29.30012512 -0.07926941 C31.66779237 0.21447049 33.258846 0.93588875 35.29296875 2.16796875 C36.43041992 3.99291992 36.43041992 3.99291992 37.3359375 6.2109375 C37.68253418 7.02997559 38.02913086 7.84901367 38.38623047 8.69287109 C38.92787842 10.01085693 38.92787842 10.01085693 39.48046875 11.35546875 C45.90498135 26.23258792 54.00238725 38.68462783 64.29296875 51.16796875 C78.38543654 40.67939484 89.11278745 21.1681773 96.890625 5.671875 C99.08938847 1.74594915 99.08938847 1.74594915 101.29296875 0.16796875 C103.99875053 -0.10589201 106.4691943 -0.20501827 109.171875 -0.16015625 C110.32368507 -0.1573465 110.32368507 -0.1573465 111.49876404 -0.15447998 C113.12023264 -0.14776305 114.74168513 -0.13385556 116.36303711 -0.11328125 C118.84959918 -0.08210484 121.3355274 -0.07230773 123.82226562 -0.06640625 C125.39714317 -0.05723689 126.97201426 -0.04686133 128.546875 -0.03515625 C129.66564781 -0.02878143 129.66564781 -0.02878143 130.80702209 -0.02227783 C136.0585305 0.05074962 136.0585305 0.05074962 138.29296875 1.16796875 C137.84371787 7.81535895 136.01432135 12.7085951 132.98046875 18.60546875 C132.53968994 19.47292725 132.09891113 20.34038574 131.64477539 21.23413086 C124.79078833 34.34751054 115.79776192 45.88318704 106.29296875 57.16796875 C104.77148877 59.06328316 103.25066022 60.95912069 101.73046875 62.85546875 C98.30517052 67.06472608 94.68408605 70.89871452 90.7265625 74.609375 C89.06730988 76.06036335 89.06730988 76.06036335 89.29296875 78.16796875 C90.71273428 79.56379447 90.71273428 79.56379447 92.60546875 81.04296875 C112.38906534 97.97550221 127.86307184 121.69354607 138.66796875 145.16796875 C139.24937622 146.41368652 139.24937622 146.41368652 139.8425293 147.68457031 C141.34726979 151.10878544 142.34738646 153.39402796 142.08203125 157.16796875 C141.29296875 159.16796875 141.29296875 159.16796875 140.29296875 160.16796875 C134.50510523 160.46067806 128.7147238 160.4820421 122.92016602 160.51806641 C120.96561779 160.5346235 119.01113005 160.56191032 117.05688477 160.60009766 C114.24333184 160.65482215 111.43120072 160.67673398 108.6171875 160.69140625 C107.30762337 160.72541031 107.30762337 160.72541031 105.97160339 160.76010132 C99.9014854 160.73893453 99.9014854 160.73893453 96.82421875 157.8515625 C94.94520058 154.55848729 93.22486633 151.21868152 91.60546875 147.79296875 C83.54726025 131.29472716 73.68318486 116.74797383 61.29296875 103.16796875 C56.85294282 104.73565563 54.46113588 108.2746699 51.66796875 111.85546875 C50.87737061 112.8614209 50.87737061 112.8614209 50.07080078 113.88769531 C41.20837286 125.30397554 33.98714841 137.18078269 27.421875 150.05078125 C23.24988664 158.21105086 23.24988664 158.21105086 21.29296875 160.16796875 C18.7227739 160.28128968 16.18045398 160.3321436 13.609375 160.3359375 C12.83867172 160.3392659 12.06796844 160.3425943 11.27391052 160.34602356 C9.64053954 160.35109585 8.00715815 160.35343179 6.3737793 160.35327148 C3.86945576 160.35545655 1.36557354 160.3736047 -1.13867188 160.39257812 C-2.72265474 160.39551222 -4.3066397 160.39749691 -5.890625 160.3984375 C-6.64274765 160.40562302 -7.3948703 160.41280853 -8.16978455 160.42021179 C-13.47820846 160.39679154 -13.47820846 160.39679154 -15.70703125 158.16796875 C-15.5297452 150.92051496 -13.46022159 145.48114456 -10.26953125 139.04296875 C-9.822146 138.12572021 -9.37476074 137.20847168 -8.91381836 136.26342773 C-4.828486 128.07487939 -0.14894875 120.51527911 5.29296875 113.16796875 C5.72722168 112.57967285 6.16147461 111.99137695 6.60888672 111.38525391 C11.61779754 104.6707147 16.94810415 98.2827662 22.60546875 92.10546875 C23.08483887 91.58130371 23.56420898 91.05713867 24.05810547 90.51708984 C27.25612845 87.09545986 30.64454841 84.10502796 34.29296875 81.16796875 C32.60168387 77.22804374 29.9645812 74.09727115 27.29296875 70.79296875 C14.26026428 54.40494933 2.65110257 37.42341628 -5.70703125 18.16796875 C-6.48626953 16.47027344 -6.48626953 16.47027344 -7.28125 14.73828125 C-7.75175781 13.68382812 -8.22226562 12.629375 -8.70703125 11.54296875 C-9.11953125 10.62257812 -9.53203125 9.7021875 -9.95703125 8.75390625 C-10.81664681 5.79002343 -10.60994184 4.09216782 -9.70703125 1.16796875 C-7.59650198 -0.94256052 -2.91833733 0.00378842 0 0 Z " fill="#FDFDFD" transform="translate(684.70703125,219.83203125)"/>
<path d="M0 0 C12.85497356 10.20327498 19.00566706 26.06213588 21 42 C21.25844033 46.5804424 21.33024588 51.14678781 21.31567383 55.73266602 C21.31251979 57.79953153 21.33604377 59.86495128 21.36132812 61.93164062 C21.4499435 80.07536817 17.30896571 96.53648709 4.3828125 109.87890625 C-5.88928599 119.02275786 -17.0472726 121.52175703 -30.5 121.375 C-31.56347656 121.38660156 -32.62695312 121.39820313 -33.72265625 121.41015625 C-46.59792278 121.36276263 -57.07485815 117.62026139 -66.484375 108.625 C-79.27547221 94.20282328 -82.55701191 74.88760173 -82.44604492 56.18652344 C-82.43750391 54.00100167 -82.46648624 51.81808078 -82.49804688 49.6328125 C-82.58215376 32.62156765 -77.73605786 16.70617554 -66 4 C-47.8628469 -13.07228237 -20.27453622 -13.43926799 0 0 Z " fill="#272362" transform="translate(196,227)"/>
<path d="M0 0 C4.72698478 3.9119874 6.57751513 8.64048177 7.32421875 14.578125 C7.58880658 20.96472779 6.27414998 25.92564803 3.77734375 31.78515625 C3.52082031 32.51605469 3.26429688 33.24695313 3 34 C3.33 34.66 3.66 35.32 4 36 C5.98 35.505 5.98 35.505 8 35 C7.34 36.65 6.68 38.3 6 40 C6.5775 39.484375 7.155 38.96875 7.75 38.4375 C10 37 10 37 12.25 37.3125 C12.8275 37.539375 13.405 37.76625 14 38 C14.25 40.3125 14.25 40.3125 14 43 C12 44.8125 12 44.8125 10 46 C10 43 10 43 12 40 C10.824375 40.99 10.824375 40.99 9.625 42 C7 44 7 44 5 44 C5 45.32 5 46.64 5 48 C6.32 48 7.64 48 9 48 C8.67 48.99 8.34 49.98 8 51 C6.68 51 5.36 51 4 51 C4.495 52.98 4.495 52.98 5 55 C2.83125748 54.49396008 1.00032373 54.00016187 -1 53 C-0.67 53.515625 -0.34 54.03125 0 54.5625 C1.35374004 57.86224134 1.32683936 60.47013492 1 64 C-2.24633524 66.1642235 -3.24301443 66.37569856 -7 66 C-8.485 65.01 -8.485 65.01 -10 64 C-9.75565541 69.86427027 -8.02272857 72.81513213 -4.27734375 77.30078125 C-3 79 -3 79 -3 81 C-2.34 81 -1.68 81 -1 81 C-1.06960938 80.1646875 -1.06960938 80.1646875 -1.140625 79.3125 C-1.64774662 68.59050013 3.81002529 62.70155062 10.66015625 55.02734375 C16.0643459 48.03527868 16.88191403 41.55908868 16 33 C15.23374294 30.12433412 14.25311266 27.71507743 13 25 C20.82299791 27.20021816 27.02923668 34.15163897 31 41 C34.40640277 47.97501519 34.02544806 57.62350648 31.8125 65 C27.77392547 74.94110653 21.9938235 80.83365382 12.375 85.375 C4.61508661 88.22070013 -4.33310445 88.50810739 -12 85.25 C-13.35037293 84.53113234 -14.68605484 83.78347041 -16 83 C-17.5778125 82.13375 -17.5778125 82.13375 -19.1875 81.25 C-26.16592291 75.66726167 -31.35550379 67.60974758 -32.3828125 58.66796875 C-32.86155465 43.9386687 -27.04969124 35.54600571 -17.28125 25.08984375 C-16.81396484 24.59282959 -16.34667969 24.09581543 -15.86523438 23.58374023 C-9.21609987 16.49913745 -3.44388385 9.21115344 0 0 Z " fill="#F9F9FB" transform="translate(390,111)"/>
<path d="M0 0 C7.05749125 5.27922574 12.00685521 11.88584666 13.62109375 20.63671875 C13.87817668 23.72696044 13.8125 26.83658314 13.8125 29.9375 C-10.9375 29.9375 -35.6875 29.9375 -61.1875 29.9375 C-58.92553526 18.62767632 -58.92553526 18.62767632 -56.3125 13.625 C-55.82007813 12.65949219 -55.32765625 11.69398438 -54.8203125 10.69921875 C-50.05369132 2.63701499 -42.92980216 -2.9318741 -33.8984375 -5.59375 C-21.93990323 -7.66150809 -10.33400667 -6.56914367 0 0 Z " fill="#282463" transform="translate(620.1875,255.0625)"/>
<path d="M0 0 C3.49971199 -0.1173794 6.99890955 -0.18763961 10.5 -0.25 C11.48226562 -0.28351563 12.46453125 -0.31703125 13.4765625 -0.3515625 C19.85948733 -0.43666816 24.71024121 0.25060722 30 4 C34.39315972 8.73109509 35.43270944 11.86955175 35.33203125 18.203125 C34.6323017 24.09731741 32.28447978 28.99599905 27.8046875 32.92578125 C22.24803754 36.7677554 18.11496084 38.13359022 11.359375 38.09765625 C10.28945312 38.09443359 9.21953125 38.09121094 8.1171875 38.08789062 C7.00601563 38.07951172 5.89484375 38.07113281 4.75 38.0625 C3.06003906 38.05573242 3.06003906 38.05573242 1.3359375 38.04882812 C-1.44276217 38.03705397 -4.22135409 38.0206084 -7 38 C-6.39249758 30.0480654 -5.03757447 22.31966445 -3.5 14.5 C-3.27441406 13.32179688 -3.04882812 12.14359375 -2.81640625 10.9296875 C-1.13375235 2.2675047 -1.13375235 2.2675047 0 0 Z " fill="#AFCE35" transform="translate(224,482)"/>
<path d="M0 0 C2.97 0 5.94 0 9 0 C9.33747548 2.87456792 9.67010463 5.74956059 10 8.625 C10.09539063 9.43324219 10.19078125 10.24148438 10.2890625 11.07421875 C10.78253617 15.40973739 11.11320717 19.62737311 11 24 C11.66 24 12.32 24 13 24 C13.28085449 23.27079346 13.56170898 22.54158691 13.85107422 21.7902832 C14.90925037 19.22039472 16.08100936 16.80886697 17.3828125 14.35546875 C17.82753906 13.51435547 18.27226563 12.67324219 18.73046875 11.80664062 C19.19066406 10.94232422 19.65085937 10.07800781 20.125 9.1875 C20.59292969 8.30384766 21.06085937 7.42019531 21.54296875 6.50976562 C22.69307603 4.33864475 23.84548146 2.1687774 25 0 C27.97 0 30.94 0 34 0 C35.32 7.92 36.64 15.84 38 24 C38.85464844 22.35128906 39.70929687 20.70257813 40.58984375 19.00390625 C41.70563067 16.85671965 42.82152144 14.70958701 43.9375 12.5625 C44.50146484 11.47388672 45.06542969 10.38527344 45.64648438 9.26367188 C46.45375977 7.71196289 46.45375977 7.71196289 47.27734375 6.12890625 C48.02359009 4.69140015 48.02359009 4.69140015 48.78491211 3.22485352 C50 1 50 1 51 0 C52.51928038 -0.07179964 54.04167482 -0.08392007 55.5625 -0.0625 C56.38878906 -0.05347656 57.21507812 -0.04445313 58.06640625 -0.03515625 C58.70449219 -0.02355469 59.34257813 -0.01195312 60 0 C58.3475353 4.41529596 56.25503296 8.53104364 54.0859375 12.70703125 C53.71143463 13.43242599 53.33693176 14.15782074 52.95108032 14.90519714 C51.76119555 17.20874614 50.56814744 19.51063954 49.375 21.8125 C48.5648944 23.37944886 47.75499629 24.94650501 46.9453125 26.51367188 C44.96594208 30.34369442 42.98373408 34.17223589 41 38 C39.35425434 38.02688151 37.70838587 38.04634123 36.0625 38.0625 C34.68771484 38.07990234 34.68771484 38.07990234 33.28515625 38.09765625 C31 38 31 38 30 37 C29.59467001 34.26920014 29.24520752 31.55451593 28.9375 28.8125 C28.84662109 28.05646484 28.75574219 27.30042969 28.66210938 26.52148438 C28.17778764 22.32281554 27.8986898 18.23476656 28 14 C27.34 14 26.68 14 26 14 C25.88140625 14.5669458 25.7628125 15.1338916 25.640625 15.71801758 C24.94374839 18.20037492 23.95677978 20.23444701 22.75 22.51171875 C22.3065625 23.35154297 21.863125 24.19136719 21.40625 25.05664062 C20.71015625 26.35891602 20.71015625 26.35891602 20 27.6875 C19.5359375 28.56728516 19.071875 29.44707031 18.59375 30.35351562 C15.14501232 36.85498768 15.14501232 36.85498768 14 38 C12.31391034 38.07205511 10.62499341 38.08386068 8.9375 38.0625 C8.01839844 38.05347656 7.09929688 38.04445313 6.15234375 38.03515625 C5.44207031 38.02355469 4.73179687 38.01195312 4 38 C3.32144793 33.54339274 2.6593446 29.08448609 2 24.625 C1.71382812 22.74748047 1.71382812 22.74748047 1.421875 20.83203125 C0.39119012 13.80128794 -0.21736415 7.10509072 0 0 Z " fill="#AECC35" transform="translate(527,482)"/>
<path d="M0 0 C5.30215995 2.44325153 8.97399831 6.05346536 11.60546875 11.31640625 C12.19908545 17.64183008 12.44836107 23.95847481 9.12109375 29.55859375 C5.38258209 33.89449645 0.63091511 36.72407488 -4.98828125 37.82421875 C-10.79576331 38.09308366 -15.74438808 36.87118236 -20.39453125 33.31640625 C-25.78213032 27.41953165 -26.75728707 22.13860988 -26.671875 14.26171875 C-26.15663137 8.78997652 -23.22515992 5.93599583 -19.26953125 2.50390625 C-13.61800023 -1.7961717 -6.81648991 -1.94597999 0 0 Z " fill="#312D69" transform="translate(862.39453125,205.68359375)"/>
<path d="M0 0 C3.52054914 -0.11709643 7.04059112 -0.1875469 10.5625 -0.25 C11.55314453 -0.28351563 12.54378906 -0.31703125 13.56445312 -0.3515625 C19.96760777 -0.43665426 23.82110364 0.13494446 29 4 C31.84000604 8.26000905 31.63091437 11.99941947 31 17 C28.78970759 21.5024475 26.46884445 23.76557777 22 26 C23.31061591 30.23429756 24.94356259 34.07407404 27 38 C23.7 38 20.4 38 17 38 C16.34 36.535625 15.68 35.07125 15 33.5625 C13.16543336 30.07889529 13.16543336 30.07889529 9.88671875 28.1796875 C7.44522138 27.86396731 7.44522138 27.86396731 4 28 C3.34 31.3 2.68 34.6 2 38 C-0.97 38 -3.94 38 -7 38 C-6.34052496 33.14287057 -5.52850059 28.34826898 -4.58984375 23.53515625 C-4.45808243 22.85698349 -4.32632111 22.17881073 -4.19056702 21.48008728 C-3.77450079 19.3405717 -3.35604303 17.20153228 -2.9375 15.0625 C-2.6528357 13.60094244 -2.36832902 12.13935416 -2.08398438 10.67773438 C-1.3911432 7.11813304 -0.69615827 3.55895427 0 0 Z " fill="#AECD35" transform="translate(700,482)"/>
<path d="M0 0 C3.54138618 -0.11681812 7.0822724 -0.187455 10.625 -0.25 C11.62402344 -0.28351563 12.62304688 -0.31703125 13.65234375 -0.3515625 C19.81048689 -0.43312731 23.30857513 -0.09930328 28 4 C30.56400777 6.56400777 30.32633634 7.68782015 30.375 11.25 C30.28244952 16.30061216 29.46340823 19.15176863 26 23 C22.6 26 22.6 26 20 26 C20.433125 26.69867188 20.86625 27.39734375 21.3125 28.1171875 C21.869375 29.02726562 22.42625 29.93734375 23 30.875 C23.556875 31.77992188 24.11375 32.68484375 24.6875 33.6171875 C26 36 26 36 26 38 C22.7 38 19.4 38 16 38 C15.34 36.535625 14.68 35.07125 14 33.5625 C12.16543336 30.07889529 12.16543336 30.07889529 8.88671875 28.1796875 C6.44522138 27.86396731 6.44522138 27.86396731 3 28 C2.93941406 28.63808594 2.87882812 29.27617187 2.81640625 29.93359375 C2.73261719 30.75988281 2.64882813 31.58617187 2.5625 32.4375 C2.48128906 33.26121094 2.40007812 34.08492187 2.31640625 34.93359375 C2 37 2 37 1 38 C-1.67058851 38.14115161 -4.32432238 38.04247107 -7 38 C-6.45076707 29.82811073 -5.1570069 21.95267909 -3.5 13.9375 C-3.27441406 12.81150391 -3.04882812 11.68550781 -2.81640625 10.52539062 C-1.1409337 2.2818674 -1.1409337 2.2818674 0 0 Z " fill="#AECD35" transform="translate(269,482)"/>
<path d="M0 0 C2.97 0 5.94 0 9 0 C12.96 6.93 16.92 13.86 21 21 C22.75826728 15.72519815 24.39672519 10.78499566 25.6875 5.4375 C26.06455078 3.88869141 26.06455078 3.88869141 26.44921875 2.30859375 C26.63097656 1.54675781 26.81273437 0.78492188 27 0 C29.64 0 32.28 0 35 0 C35.12921224 4.93535429 34.69872086 9.37522904 33.72265625 14.2109375 C33.59185165 14.86454254 33.46104706 15.51814758 33.32627869 16.19155884 C33.05122047 17.55853279 32.77290837 18.92485577 32.49145508 20.29052734 C32.05967518 22.38872699 31.6394523 24.48900874 31.22070312 26.58984375 C29.14369081 36.85630919 29.14369081 36.85630919 28 38 C23.08080229 39.01776504 23.08080229 39.01776504 20 38 C17.01144853 34.70636724 15.06511644 30.91842606 13 27 C12.41605469 25.95070313 11.83210938 24.90140625 11.23046875 23.8203125 C9.7924794 21.22721696 8.38450071 18.62192991 7 16 C6.88406494 16.59538574 6.76812988 17.19077148 6.64868164 17.80419922 C6.12296202 20.49506396 5.59278705 23.1850318 5.0625 25.875 C4.88009766 26.81214844 4.69769531 27.74929688 4.50976562 28.71484375 C4.33251953 29.61074219 4.15527344 30.50664063 3.97265625 31.4296875 C3.81031494 32.25710449 3.64797363 33.08452148 3.48071289 33.93701172 C3 36 3 36 2 38 C-0.97 38 -3.94 38 -7 38 C-6.34052496 33.14287057 -5.52850059 28.34826898 -4.58984375 23.53515625 C-4.45808243 22.85698349 -4.32632111 22.17881073 -4.19056702 21.48008728 C-3.77450079 19.3405717 -3.35604303 17.20153228 -2.9375 15.0625 C-2.6528357 13.60094244 -2.36832902 12.13935416 -2.08398438 10.67773438 C-1.3911432 7.11813304 -0.69615827 3.55895427 0 0 Z " fill="#AECC35" transform="translate(326,482)"/>
<path d="M0 0 C7.4522293 -0.45859873 7.4522293 -0.45859873 9.84765625 1.546875 C10.24855469 2.27390625 10.64945312 3.0009375 11.0625 3.75 C11.76632812 4.96236328 11.76632812 4.96236328 12.484375 6.19921875 C13.23460937 7.58560547 13.23460937 7.58560547 14 9 C15.2664151 11.19006082 16.53729521 13.37754546 17.8125 15.5625 C18.68841797 17.11130859 18.68841797 17.11130859 19.58203125 18.69140625 C20.04996094 19.45324219 20.51789063 20.21507812 21 21 C21.33 21 21.66 21 22 21 C22.11593506 20.43490723 22.23187012 19.86981445 22.35131836 19.28759766 C22.87715296 16.73279309 23.40727295 14.1788964 23.9375 11.625 C24.11990234 10.73554688 24.30230469 9.84609375 24.49023438 8.9296875 C24.66748047 8.07890625 24.84472656 7.228125 25.02734375 6.3515625 C25.18968506 5.56604004 25.35202637 4.78051758 25.51928711 3.97119141 C26 2 26 2 27 0 C29.64 0 32.28 0 35 0 C34.45076707 8.17188927 33.1570069 16.04732091 31.5 24.0625 C31.27441406 25.18849609 31.04882812 26.31449219 30.81640625 27.47460938 C29.1409337 35.7181326 29.1409337 35.7181326 28 38 C23.07359892 38.95070898 23.07359892 38.95070898 20 38 C17.00546197 34.71285638 15.0646261 30.91749568 13 27 C12.41605469 25.95070313 11.83210938 24.90140625 11.23046875 23.8203125 C9.79314712 21.22842104 8.39294067 18.61601053 7 16 C5.35 23.26 3.7 30.52 2 38 C-0.97 38 -3.94 38 -7 38 C-5.2977958 25.22076551 -2.58226388 12.62358142 0 0 Z " fill="#AECD35" transform="translate(428,482)"/>
<path d="M0 0 C2.57147982 -0.01803282 4.74158806 0.20282868 7.22265625 0.85546875 C9.82291592 9.3680507 12.00113626 17.92851712 13.97265625 26.60546875 C14.19526123 27.58209473 14.41786621 28.5587207 14.6472168 29.56494141 C16.22265625 36.58983149 16.22265625 36.58983149 16.22265625 38.85546875 C13.25265625 38.85546875 10.28265625 38.85546875 7.22265625 38.85546875 C6.22265625 36.85546875 6.22265625 36.85546875 6.22265625 30.85546875 C-0.04734375 30.85546875 -6.31734375 30.85546875 -12.77734375 30.85546875 C-13.76734375 33.33046875 -13.76734375 33.33046875 -14.77734375 35.85546875 C-15.43734375 36.84546875 -16.09734375 37.83546875 -16.77734375 38.85546875 C-18.94140625 39.1484375 -18.94140625 39.1484375 -21.40234375 39.04296875 C-22.21960938 39.01589844 -23.036875 38.98882813 -23.87890625 38.9609375 C-24.50539063 38.92613281 -25.131875 38.89132812 -25.77734375 38.85546875 C-23.75093978 32.82479346 -20.0092445 27.69545205 -16.58251953 22.39135742 C-14.05885249 18.47701426 -11.5818779 14.5775585 -9.3359375 10.49609375 C-4.15308245 1.27921949 -4.15308245 1.27921949 0 0 Z " fill="#AECD35" transform="translate(604.77734375,481.14453125)"/>
<path d="M0 0 C2.97 0 5.94 0 9 0 C8.85816304 1.75032844 8.71136571 3.50025534 8.5625 5.25 C8.48128906 6.22453125 8.40007812 7.1990625 8.31640625 8.203125 C8.04925416 10.56461753 7.64628032 12.71901065 7 15 C8.68838564 13.62608764 10.37565901 12.25080839 12.0625 10.875 C13.07441406 10.05902344 14.08632813 9.24304688 15.12890625 8.40234375 C17.40631396 6.4967577 19.42791855 4.55011116 21.5 2.4375 C25.22174854 -0.86566558 29.06918603 -0.48061129 33.83984375 -0.2109375 C34.90912109 -0.10652344 34.90912109 -0.10652344 36 0 C32.16713416 3.89061146 28.21140271 7.62055805 24.1875 11.3125 C23.59001953 11.86228516 22.99253906 12.41207031 22.37695312 12.97851562 C20.91885078 14.31996978 19.4595496 15.66012065 18 17 C19.57263975 21.53646083 21.97744683 25.22858064 24.625 29.1875 C29 35.72986963 29 35.72986963 29 38 C25.42583455 38.79100383 22.5434665 39.01385302 19 38 C15.6295491 34.41418483 11 29.15240018 11 24 C5.14416274 27.58196347 5.14416274 27.58196347 2.9375 33.5625 C2.76089844 34.38878906 2.58429688 35.21507812 2.40234375 36.06640625 C2.26957031 36.70449219 2.13679688 37.34257813 2 38 C-0.97 38 -3.94 38 -7 38 C-5.2977958 25.22076551 -2.58226388 12.62358142 0 0 Z " fill="#AECC35" transform="translate(370,482)"/>
<path d="M0 0 C3.03128169 1.81876902 3.65875166 2.22625498 4.8125 5.6875 C3.1625 7.0075 1.5125 8.3275 -0.1875 9.6875 C-4.9375 7.8125 -4.9375 7.8125 -7.1875 6.6875 C-11.86220792 6.11718563 -15.31066498 6.24908249 -19.5625 8.375 C-23.43644402 11.78776021 -25.00706471 14.00343728 -25.5625 19.1875 C-25.16609791 22.88725288 -24.42919299 24.75605532 -22.1875 27.6875 C-19.82136544 28.87056728 -18.31969264 28.82104608 -15.6875 28.8125 C-14.8934375 28.81507813 -14.099375 28.81765625 -13.28125 28.8203125 C-11.12831466 28.82027996 -11.12831466 28.82027996 -9.1875 27.6875 C-8.49656104 25.10798126 -8.49656104 25.10798126 -8.0625 22.125 C-7.89492188 21.11308594 -7.72734375 20.10117187 -7.5546875 19.05859375 C-7.43351562 18.27613281 -7.31234375 17.49367188 -7.1875 16.6875 C-4.2175 16.6875 -1.2475 16.6875 1.8125 16.6875 C0.51222753 30.87380607 0.51222753 30.87380607 -3.2265625 34.86328125 C-9.8048916 38.40304882 -17.36606377 39.13312326 -24.51953125 36.98828125 C-29.26200644 34.90299995 -31.71857596 32.3290772 -34.1875 27.6875 C-36.08090495 22.00728516 -36.10881907 15.94648331 -33.625 10.4375 C-26.86721711 -1.34103003 -12.24279843 -6.46310411 0 0 Z " fill="#ACCA36" transform="translate(501.1875,483.3125)"/>
<path d="M0 0 C9.57 0 19.14 0 29 0 C28.67 2.31 28.34 4.62 28 7 C21.07 7 14.14 7 7 7 C7 9.31 7 11.62 7 14 C12.61 14.33 18.22 14.66 24 15 C23.67 17.31 23.34 19.62 23 22 C16.73 22 10.46 22 4 22 C3.67 24.97 3.34 27.94 3 31 C9.6 31 16.2 31 23 31 C23 32.98 23 34.96 23 37 C22 38 22 38 19.22436523 38.11352539 C18.01466064 38.10828857 16.80495605 38.10305176 15.55859375 38.09765625 C14.25341797 38.09443359 12.94824219 38.09121094 11.60351562 38.08789062 C10.2148431 38.07953401 8.82617123 38.07106905 7.4375 38.0625 C6.04492344 38.05748666 4.65234519 38.05292347 3.25976562 38.04882812 C-0.1601987 38.03699434 -3.58007844 38.0205088 -7 38 C-6.44324191 29.61314294 -4.75521566 21.56748058 -2.9375 13.375 C-1.968125 8.96125 -0.99875 4.5475 0 0 Z " fill="#AFCE35" transform="translate(664,482)"/>
<path d="M0 0 C1.32 0 2.64 0 4 0 C3.67 3.63 3.34 7.26 3 11 C4.79275845 9.54300902 6.58417229 8.08436345 8.375 6.625 C9.37273437 5.81289063 10.37046875 5.00078125 11.3984375 4.1640625 C13.96360506 2.09734084 13.96360506 2.09734084 16 0 C19.125 -0.125 19.125 -0.125 22 0 C22 0.66 22 1.32 22 2 C20.29781633 3.49381291 18.53677109 4.92097016 16.75 6.3125 C12.95169385 9.27176233 9.87706767 12.12965897 7 16 C7.721875 16.77085937 8.44375 17.54171875 9.1875 18.3359375 C10.12525968 19.34871795 11.06274557 20.36175196 12 21.375 C12.47695313 21.88289063 12.95390625 22.39078125 13.4453125 22.9140625 C17 26.7734375 17 26.7734375 17 29 C19.82812828 26.33517173 21.93927129 23.75444912 23.91015625 20.41015625 C24.42513672 19.54326172 24.94011719 18.67636719 25.47070312 17.78320312 C26.25864258 16.43645508 26.25864258 16.43645508 27.0625 15.0625 C27.59166016 14.16853516 28.12082031 13.27457031 28.66601562 12.35351562 C29.65385229 10.68398489 30.63925332 9.0130087 31.62133789 7.34008789 C32.07629639 6.56785889 32.53125488 5.79562988 33 5 C33.49685303 4.08404053 33.99370605 3.16808105 34.50561523 2.22436523 C34.99876221 1.49032471 35.49190918 0.75628418 36 0 C38.6875 -0.3125 38.6875 -0.3125 41 0 C43.03679337 5.89598082 44.89568093 11.83828664 46.6875 17.8125 C46.91397217 18.55363037 47.14044434 19.29476074 47.3737793 20.05834961 C48.41013565 23.54896279 49 26.32750505 49 30 C47.35 29.67 45.7 29.34 44 29 C44 27.35 44 25.7 44 24 C41.24677259 24.03306277 38.50159629 24.10025426 35.75 24.1875 C34.97269531 24.19330078 34.19539063 24.19910156 33.39453125 24.20507812 C31.15811587 24.2910941 29.16551088 24.42841845 27 25 C24.75691288 27.41682314 24.75691288 27.41682314 23 30 C19.14885962 31.35851251 15.88349084 31.2073841 12 30 C8.38832951 26.72478789 5.70755576 23.03614707 3 19 C2.67 18.67 2.34 18.34 2 18 C1.01 21.96 0.02 25.92 -1 30 C-2.32 30 -3.64 30 -5 30 C-3.87791788 19.83525606 -2.33636384 9.96848573 0 0 Z " fill="#A5C238" transform="translate(450,426)"/>
<path d="M0 0 C15.0281144 -0.75036355 15.0281144 -0.75036355 21 4 C24.1251794 8.6877691 23.56752487 13.51392621 23 19 C21.01255091 23.55457082 17.93762485 26.56826989 13.703125 29.09765625 C7.74751032 31.08572994 1.1928033 30.33819921 -5 30 C-4.49329095 23.61546601 -3.61096982 17.36513014 -2.5 11.0625 C-2.36940186 10.31685791 -2.23880371 9.57121582 -2.10424805 8.80297852 C-1.56082525 5.78231868 -0.97196538 2.91589613 0 0 Z " fill="#A6C338" transform="translate(566,426)"/>
<path d="M0 0 C10.89 0 21.78 0 33 0 C33 1.98 33 3.96 33 6 C32 7 32 7 29.27734375 7.09765625 C27.62412109 7.08025391 27.62412109 7.08025391 25.9375 7.0625 C24.83277344 7.05347656 23.72804688 7.04445313 22.58984375 7.03515625 C21.73519531 7.02355469 20.88054688 7.01195312 20 7 C19.90203125 7.72960937 19.8040625 8.45921875 19.703125 9.2109375 C18.31094583 18.93218858 16.21097408 28.43700048 14 38 C11.03 38 8.06 38 5 38 C5.70969354 31.21304565 7.07557427 24.65576279 8.5625 18 C8.79646484 16.93910156 9.03042969 15.87820313 9.27148438 14.78515625 C9.84442407 12.18938865 10.42176423 9.59459298 11 7 C7.04 7 3.08 7 -1 7 C-0.67 4.69 -0.34 2.38 0 0 Z " fill="#AFCE35" transform="translate(626,482)"/>
<path d="M0 0 C5.30215995 2.44325153 8.97399831 6.05346536 11.60546875 11.31640625 C12.19908545 17.64183008 12.44836107 23.95847481 9.12109375 29.55859375 C5.38258209 33.89449645 0.63091511 36.72407488 -4.98828125 37.82421875 C-10.79576331 38.09308366 -15.74438808 36.87118236 -20.39453125 33.31640625 C-25.78213032 27.41953165 -26.75728707 22.13860988 -26.671875 14.26171875 C-26.15663137 8.78997652 -23.22515992 5.93599583 -19.26953125 2.50390625 C-13.61800023 -1.7961717 -6.81648991 -1.94597999 0 0 Z M-20.26953125 9.87890625 C-21.86654776 14.75867892 -22.21729317 19.23641749 -21.39453125 24.31640625 C-19.50940989 27.96386329 -16.79578511 30.04890368 -13.39453125 32.31640625 C-8.17091443 33.02163552 -3.69668888 32.92097944 1.10546875 30.69140625 C5.3720386 26.63816489 6.77265399 23.12381358 7.04296875 17.31640625 C6.87981895 12.59924894 5.88542736 9.85530896 2.60546875 6.31640625 C-5.39420968 0.73523526 -14.48208666 1.96939864 -20.26953125 9.87890625 Z " fill="#EFEFF3" transform="translate(862.39453125,205.68359375)"/>
<path d="M0 0 C2.37570543 -0.0816082 4.74855841 -0.14077222 7.125 -0.1875 C7.79015625 -0.21263672 8.4553125 -0.23777344 9.140625 -0.26367188 C13.8723325 -0.33325581 16.96355779 0.56463897 21 3 C22.64037395 4.64037395 22.24911331 6.49476841 22.3125 8.75 C22.2762165 12.37834995 22.12200473 13.79084903 20.25 17 C15.96628136 20.8077499 12.97770126 21.23955403 7.25 21.125 C5.49429687 21.09792969 5.49429687 21.09792969 3.703125 21.0703125 C2.81109375 21.04710937 1.9190625 21.02390625 1 21 C0.67 23.97 0.34 26.94 0 30 C-1.65 30 -3.3 30 -5 30 C-4.33951685 23.22135711 -3.25308378 16.61769044 -1.9375 9.9375 C-1.75123047 8.97650391 -1.56496094 8.01550781 -1.37304688 7.02539062 C-0.91854438 4.68295469 -0.46081098 2.34120156 0 0 Z " fill="#A6C338" transform="translate(363,426)"/>
<path d="M0 0 C11.69892252 -0.40889438 11.69892252 -0.40889438 17.3125 3.6875 C19.7616525 7.04374603 19.61283154 8.91445643 19 13 C17.19954988 17.16785049 15.01974172 20.20410402 11.4375 23 C6.3073587 24.49240474 1.30416155 24.23173521 -4 24 C-2.80039297 15.97284232 -1.50253855 7.9762419 0 0 Z " fill="#2C295F" transform="translate(231,489)"/>
<path d="M0 0 C1.2065625 0.0309375 1.2065625 0.0309375 2.4375 0.0625 C3.58392114 4.31234167 4.7295354 8.56240043 5.875 12.8125 C6.36323242 14.62234375 6.36323242 14.62234375 6.86132812 16.46875 C7.17392578 17.62890625 7.48652344 18.7890625 7.80859375 19.984375 C8.2406311 21.58684082 8.2406311 21.58684082 8.68139648 23.22167969 C9.2871638 25.49765918 9.8753853 27.77544104 10.4375 30.0625 C8.7875 30.0625 7.1375 30.0625 5.4375 30.0625 C5.1075 28.0825 4.7775 26.1025 4.4375 24.0625 C1.66342351 24.09548902 -1.10255929 24.16259079 -3.875 24.25 C-4.66068359 24.25580078 -5.44636719 24.26160156 -6.25585938 24.26757812 C-8.46793977 24.3522961 -10.4270594 24.47332456 -12.5625 25.0625 C-14.48893582 27.4793478 -14.48893582 27.4793478 -15.5625 30.0625 C-18.25 30.375 -18.25 30.375 -20.5625 30.0625 C-19.14199908 26.1831849 -17.3178655 22.85406814 -15.12109375 19.359375 C-14.45529297 18.2971875 -13.78949219 17.235 -13.10351562 16.140625 C-12.06227539 14.49320312 -12.06227539 14.49320312 -11 12.8125 C-9.95295898 11.141875 -9.95295898 11.141875 -8.88476562 9.4375 C-2.99776583 0.07311624 -2.99776583 0.07311624 0 0 Z " fill="#A6C337" transform="translate(402.5625,425.9375)"/>
<path d="M0 0 C0.99 0.33 1.98 0.66 3 1 C5.14255793 0.61067144 5.14255793 0.61067144 7 0 C6.34 1.65 5.68 3.3 5 5 C5.5775 4.484375 6.155 3.96875 6.75 3.4375 C9 2 9 2 11.25 2.3125 C11.8275 2.539375 12.405 2.76625 13 3 C13.25 5.3125 13.25 5.3125 13 8 C11 9.8125 11 9.8125 9 11 C9 8 9 8 11 5 C10.21625 5.66 9.4325 6.32 8.625 7 C6 9 6 9 4 9 C4 10.32 4 11.64 4 13 C5.32 13 6.64 13 8 13 C7.67 13.99 7.34 14.98 7 16 C5.68 16 4.36 16 3 16 C3.33 17.32 3.66 18.64 4 20 C1.83125748 19.49396008 0.00032373 19.00016187 -2 18 C-1.67 18.515625 -1.34 19.03125 -1 19.5625 C0.35374004 22.86224134 0.32683936 25.47013492 0 29 C-3.24633524 31.1642235 -4.24301443 31.37569856 -8 31 C-8.99 30.34 -9.98 29.68 -11 29 C-11.66 29.33 -12.32 29.66 -13 30 C-14.00091037 17.58871147 -7.28871182 9.51330625 0 0 Z " fill="#393570" transform="translate(391,146)"/>
<path d="M0 0 C0.804375 0.495 1.60875 0.99 2.4375 1.5 C2.4375 2.49 2.4375 3.48 2.4375 4.5 C-1.5625 4.5 -1.5625 4.5 -4.5625 3.5 C-8.81410217 3.09890546 -11.0631973 3.23621744 -14.875 5.25 C-17.99942998 7.86580184 -19.32287798 9.70439083 -19.86328125 13.75390625 C-19.86714844 14.51574219 -19.87101562 15.27757812 -19.875 16.0625 C-19.89175781 16.82691406 -19.90851563 17.59132813 -19.92578125 18.37890625 C-19.7055316 20.55461937 -19.7055316 20.55461937 -18.35546875 22.2578125 C-15.98109282 23.90280498 -14.43035331 23.86797931 -11.5625 23.8125 C-10.263125 23.80669922 -10.263125 23.80669922 -8.9375 23.80078125 C-6.29832063 23.6458217 -6.29832063 23.6458217 -3.5625 21.5 C-2.82906572 18.43443402 -2.82906572 18.43443402 -2.5625 15.5 C-5.2025 15.5 -7.8425 15.5 -10.5625 15.5 C-10.5625 14.18 -10.5625 12.86 -10.5625 11.5 C-6.2725 11.5 -1.9825 11.5 2.4375 11.5 C2.77231192 16.96859474 2.29412468 20.76871537 -0.5625 25.5 C-4.57842912 28.86105339 -8.57470853 29.81740242 -13.75 29.5625 C-17.41427154 29.01567794 -18.58131338 28.48541004 -21.625 26.125 C-25.21498256 21.26115267 -25.17563988 16.33815801 -24.5625 10.5 C-22.96763823 5.20749691 -19.51011557 2.04935292 -14.77734375 -0.62109375 C-9.54716552 -2.6965613 -5.09298233 -2.14441361 0 0 Z " fill="#A7C437" transform="translate(527.5625,427.5)"/>
<path d="M0 0 C2.97 0 5.94 0 9 0 C6.83301168 12.70229285 4.63073369 25.38443615 2 38 C-1.3 38 -4.6 38 -8 38 C-6.55873604 29.96243961 -5.03164779 21.9460822 -3.4375 13.9375 C-3.21642578 12.81150391 -2.99535156 11.68550781 -2.76757812 10.52539062 C-2.55423828 9.45353516 -2.34089844 8.38167969 -2.12109375 7.27734375 C-1.9295874 6.31046631 -1.73808105 5.34358887 -1.54077148 4.34741211 C-1 2 -1 2 0 0 Z " fill="#ADCC35" transform="translate(309,482)"/>
<path d="M0 0 C2.64 0 5.28 0 8 0 C8.13578996 5.02139942 7.66791233 9.54235686 6.6875 14.46484375 C6.55432373 15.14301651 6.42114746 15.82118927 6.28393555 16.51991272 C5.86213836 18.66038827 5.4312395 20.79890903 5 22.9375 C4.71033083 24.39896843 4.42126262 25.8605561 4.1328125 27.32226562 C3.42881251 30.88291466 2.71664472 34.44187169 2 38 C-1.3 38 -4.6 38 -8 38 C-7.23716976 33.72769795 -6.46325251 29.45747297 -5.6875 25.1875 C-5.47416016 23.99189453 -5.26082031 22.79628906 -5.04101562 21.56445312 C-3.70715231 14.25806748 -2.09854297 7.12556117 0 0 Z " fill="#ADCC35" transform="translate(411,482)"/>
<path d="M0 0 C7.26 0 14.52 0 22 0 C22 1.32 22 2.64 22 4 C16.06 4 10.12 4 4 4 C3.67 6.97 3.34 9.94 3 13 C8.28 13 13.56 13 19 13 C19 14.32 19 15.64 19 17 C13.39 17 7.78 17 2 17 C1.67 19.97 1.34 22.94 1 26 C6.28 26 11.56 26 17 26 C17 27.32 17 28.64 17 30 C9.74 30 2.48 30 -5 30 C-4.35536596 25.93730638 -3.70934127 21.87484226 -3.0625 17.8125 C-2.88009766 16.66201172 -2.69769531 15.51152344 -2.50976562 14.32617188 C-2.33251953 13.21435547 -2.15527344 12.10253906 -1.97265625 10.95703125 C-1.72914429 9.42526245 -1.72914429 9.42526245 -1.48071289 7.86254883 C-1.03903678 5.23245621 -0.52302614 2.61513071 0 0 Z " fill="#A7C437" transform="translate(538,426)"/>
<path d="M0 0 C9.89914663 -0.61442979 9.89914663 -0.61442979 13.6875 1.5 C15.54145236 5.03133782 15.73376446 8.15329542 15 12 C12.77864953 16.3604287 10.59457298 19.20212362 6 21 C2.65016685 21.23155529 -0.64860453 21.17570423 -4 21 C-3.39352053 16.55248389 -2.71458448 12.1189903 -2 7.6875 C-1.7525 6.14642578 -1.7525 6.14642578 -1.5 4.57421875 C-1 2 -1 2 0 0 Z " fill="#292660" transform="translate(570,431)"/>
<path d="M0 0 C1.32 0 2.64 0 4 0 C3.67 3.63 3.34 7.26 3 11 C4.79275845 9.54300902 6.58417229 8.08436345 8.375 6.625 C9.37273437 5.81289063 10.37046875 5.00078125 11.3984375 4.1640625 C13.96360506 2.09734084 13.96360506 2.09734084 16 0 C19.125 -0.125 19.125 -0.125 22 0 C22 0.66 22 1.32 22 2 C20.29781633 3.49381291 18.53677109 4.92097016 16.75 6.3125 C12.95169385 9.27176233 9.87706767 12.12965897 7 16 C7.721875 16.77085937 8.44375 17.54171875 9.1875 18.3359375 C10.12525968 19.34871795 11.06274557 20.36175196 12 21.375 C12.47695313 21.88289063 12.95390625 22.39078125 13.4453125 22.9140625 C17 26.7734375 17 26.7734375 17 29 C17.66 29.33 18.32 29.66 19 30 C15.8046875 30.33984375 15.8046875 30.33984375 12 30 C9.3828125 27.62890625 9.3828125 27.62890625 7.125 24.5625 C6.36445313 23.55316406 5.60390625 22.54382813 4.8203125 21.50390625 C4.21960938 20.67761719 3.61890625 19.85132813 3 19 C2.67 18.67 2.34 18.34 2 18 C1.01 21.96 0.02 25.92 -1 30 C-2.32 30 -3.64 30 -5 30 C-3.87791788 19.83525606 -2.33636384 9.96848573 0 0 Z " fill="#A6C338" transform="translate(450,426)"/>
<path d="M0 0 C3.13770487 4.70655731 2.542305 9.49243495 2 15 C0.26337447 21.50360434 -4.65214681 26.2935174 -8.875 31.3359375 C-13.84741746 37.56974027 -15.63291507 43.0709655 -16 51 C-16.66 51 -17.32 51 -18 51 C-22.95163543 45.41940395 -25.8613543 40.48686787 -26 33 C-25.2265625 33.5259375 -25.2265625 33.5259375 -24.4375 34.0625 C-21.05993333 35.3615641 -18.49531943 34.67217681 -15 34 C-14.87530901 28.42169984 -14.87530901 28.42169984 -16 23 C-14.02 23.66 -12.04 24.32 -10 25 C-10.33 23.68 -10.66 22.36 -11 21 C-10.360625 20.87625 -9.72125 20.7525 -9.0625 20.625 C-8.381875 20.41875 -7.70125 20.2125 -7 20 C-6.67 19.34 -6.34 18.68 -6 18 C-7.32 18 -8.64 18 -10 18 C-10 16.68 -10 15.36 -10 14 C-5.77777778 10 -5.77777778 10 -3 10 C-3.66 11.65 -4.32 13.3 -5 15 C-1.94079148 12.96052765 -1.24509428 12.29653532 0 9 C0.23979762 6.63777768 0.23979762 6.63777768 0.125 4.25 C0.09792969 3.05117187 0.09792969 3.05117187 0.0703125 1.828125 C0.04710937 1.22484375 0.02390625 0.6215625 0 0 Z " fill="#393570" transform="translate(405,141)"/>
<path d="M0 0 C2.41534564 1.08453755 3.9518276 2.27522324 6 4 C5.01 5.485 5.01 5.485 4 7 C3.43023437 6.67902344 2.86046875 6.35804688 2.2734375 6.02734375 C-1.45113551 4.34424633 -4.99896796 4.30085772 -9 5 C-12.07061968 6.71368609 -14.40450726 8.80901452 -16 12 C-16.14640501 13.64142541 -16.22096589 15.2898141 -16.25 16.9375 C-16.27578125 17.81277344 -16.3015625 18.68804687 -16.328125 19.58984375 C-16.18141761 22.02727414 -16.18141761 22.02727414 -14.7578125 23.796875 C-11.49994185 26.02670646 -7.79025437 25.40491334 -4 25 C-1.06919326 24.13346586 -1.06919326 24.13346586 1 23 C1.66 24.32 2.32 25.64 3 27 C-0.93563425 29.76816065 -3.70796763 30.43190183 -8.5 30.4375 C-9.6034375 30.45683594 -10.706875 30.47617187 -11.84375 30.49609375 C-15.68431458 29.89244065 -17.27400482 28.73079447 -20 26 C-22.85489561 21.69170298 -22.63228814 16.98717272 -22 12 C-17.42269085 2.66933134 -10.10498744 -1.18973094 0 0 Z " fill="#A6C338" transform="translate(438,426)"/>
<path d="M0 0 C12.625 -0.25 12.625 -0.25 16 2 C16.1875 5.125 16.1875 5.125 16 8 C15.01 8.33 14.02 8.66 13 9 C13 9.66 13 10.32 13 11 C13.66 11 14.32 11 15 11 C15.66 13.97 16.32 16.94 17 20 C15.35 20 13.7 20 12 20 C11.5875 18.865625 11.175 17.73125 10.75 16.5625 C9.43314602 12.90456616 9.43314602 12.90456616 6.8125 12.0625 C6.214375 12.041875 5.61625 12.02125 5 12 C5 14.64 5 17.28 5 20 C3.35 20 1.7 20 0 20 C0 13.4 0 6.8 0 0 Z " fill="#EAEAF0" transform="translate(847,214)"/>
<path d="M0 0 C1.58246707 -0.08153933 3.16616273 -0.13943557 4.75 -0.1875 C6.07257812 -0.23970703 6.07257812 -0.23970703 7.421875 -0.29296875 C10.50002806 0.05682137 11.80182488 0.84709622 14 3 C14.5625 5.9375 14.5625 5.9375 14 9 C12.1875 11.375 12.1875 11.375 9 13 C5.30775811 13.32151545 1.69562961 13.23299941 -2 13 C-1.39174965 8.65535464 -0.73832608 4.32448133 0 0 Z " fill="#2C2A5F" transform="translate(708,489)"/>
<path d="M0 0 C1.5675 -0.061875 3.135 -0.12375 4.75 -0.1875 C6.07257813 -0.23970703 6.07257813 -0.23970703 7.421875 -0.29296875 C10.49951615 0.0567632 11.8043956 0.84468192 14 3 C14.5 5.9375 14.5 5.9375 14 9 C12.359375 11.17578125 12.359375 11.17578125 10 13 C5.93404512 13.52667809 2.11858117 13.17906875 -2 13 C-1.34 8.71 -0.68 4.42 0 0 Z " fill="#2B2960" transform="translate(276,489)"/>
<path d="M0 0 C2.12472576 -0.05386629 4.24983652 -0.09273071 6.375 -0.125 C7.55835938 -0.14820313 8.74171875 -0.17140625 9.9609375 -0.1953125 C13 0 13 0 15 2 C14.77385405 8.21901366 14.77385405 8.21901366 12.3046875 10.7109375 C8.10845335 13.05798372 3.70592509 12.16806875 -1 12 C-0.67 8.04 -0.34 4.08 0 0 Z " fill="#2C2A5F" transform="translate(366,431)"/>
<path d="M0 0 C0.56203125 0.33773437 1.1240625 0.67546875 1.703125 1.0234375 C4.39726644 2.1689058 5.88038233 2.0470026 8.75 1.625 C9.94882812 1.45871094 9.94882812 1.45871094 11.171875 1.2890625 C11.77515625 1.19367188 12.3784375 1.09828125 13 1 C12.78537109 2.04220703 12.78537109 2.04220703 12.56640625 3.10546875 C11.96733421 6.16693345 11.44485302 9.23455833 10.9375 12.3125 C10.76089844 13.38113281 10.58429688 14.44976562 10.40234375 15.55078125 C10.26957031 16.35902344 10.13679688 17.16726562 10 18 C9.34 18 8.68 18 8 18 C3.04836457 12.41940395 0.1386457 7.48686787 0 0 Z " fill="#2C2866" transform="translate(379,174)"/>
<path d="M0 0 C3 0.25 3 0.25 5 2.25 C5.3125 5.75 5.3125 5.75 5 9.25 C1.77626323 11.39915785 0.73296326 11.63286803 -3 11.25 C-5 9.25 -5 9.25 -5.25 5.75 C-4.93427155 1.32980166 -4.46370491 0.37197541 0 0 Z " fill="#EDECF2" transform="translate(386,165.75)"/>
<path d="M0 0 C2.29604234 4.2061952 3.03772466 8.3260912 4 13 C0.04 13 -3.92 13 -8 13 C-7.04600922 11.20601733 -6.08665974 9.41488345 -5.125 7.625 C-4.59132813 6.62726563 -4.05765625 5.62953125 -3.5078125 4.6015625 C-2 2 -2 2 0 0 Z " fill="#2F2D5E" transform="translate(488,432)"/>
<path d="M0 0 C0.66 0.33 1.32 0.66 2 1 C3.26761762 5.29581527 4 8.50944298 4 13 C0.37 13 -3.26 13 -7 13 C-5.58001139 9.45002848 -4.3878411 6.81270066 -2.375 3.6875 C-1.92898438 2.99011719 -1.48296875 2.29273438 -1.0234375 1.57421875 C-0.51683594 0.79498047 -0.51683594 0.79498047 0 0 Z " fill="#2F2D5E" transform="translate(401,432)"/>
<path d="M0 0 C2.79024052 4.18536078 3.10154594 8.05850265 4 13 C0.04 13 -3.92 13 -8 13 C-6.85605098 11.01974361 -5.70978896 9.04082322 -4.5625 7.0625 C-3.92441406 5.96035156 -3.28632812 4.85820312 -2.62890625 3.72265625 C-1 1 -1 1 0 0 Z " fill="#2F2D5E" transform="translate(605,492)"/>
<path d="M0 0 C2.625 0.375 2.625 0.375 5 1 C5 1.99 5 2.98 5 4 C6.32 4 7.64 4 9 4 C8.67 4.99 8.34 5.98 8 7 C6.68 7 5.36 7 4 7 C4.33 8.32 4.66 9.64 5 11 C1.12867972 10.42647107 -1.08172796 8.51295648 -4 6 C-2.84826645 3.53199953 -1.95216435 1.95216435 0 0 Z " fill="#E9E8EF" transform="translate(390,155)"/>
<path d="M0 0 C0.99 0 1.98 0 3 0 C2.34 1.65 1.68 3.3 1 5 C1.5775 4.484375 2.155 3.96875 2.75 3.4375 C5 2 5 2 7.25 2.3125 C7.8275 2.539375 8.405 2.76625 9 3 C9.25 5.3125 9.25 5.3125 9 8 C7 9.8125 7 9.8125 5 11 C5 8 5 8 7 5 C6.443125 5.515625 5.88625 6.03125 5.3125 6.5625 C3 8 3 8 0.25 7.6875 C-0.4925 7.460625 -1.235 7.23375 -2 7 C-1.125 1.125 -1.125 1.125 0 0 Z " fill="#E7E6ED" transform="translate(395,146)"/>
<path d="M0 0 C1.65 0 3.3 0 5 0 C5.33 1.65 5.66 3.3 6 5 C4.02 5.33 2.04 5.66 0 6 C0 4.02 0 2.04 0 0 Z " fill="#4C497D" transform="translate(852,217)"/>
<path d="M0 0 C1.65 0.33 3.3 0.66 5 1 C4.67 2.65 4.34 4.3 4 6 C2.35 5.67 0.7 5.34 -1 5 C-0.67 3.35 -0.34 1.7 0 0 Z " fill="#3B3771" transform="translate(384,168)"/>
<path d="M0 0 C2.97 0.33 5.94 0.66 9 1 C8.67 1.99 8.34 2.98 8 4 C5.36 3.67 2.72 3.34 0 3 C0 2.01 0 1.02 0 0 Z " fill="#9B99B6" transform="translate(390,158)"/>
<path d="M0 0 C0.33 0 0.66 0 1 0 C1.1875 3.375 1.1875 3.375 1 7 C-2.22791555 9.1519437 -3.28400809 9.20086443 -7 9 C-5 6 -5 6 -2 5 C-0.78130071 2.49552484 -0.78130071 2.49552484 0 0 Z " fill="#DDDCE6" transform="translate(390,168)"/>
<path d="M0 0 C0.99 0 1.98 0 3 0 C2.1875 2.9375 2.1875 2.9375 1 6 C0.01 6.33 -0.98 6.66 -2 7 C-1.125 1.125 -1.125 1.125 0 0 Z " fill="#D3D2DF" transform="translate(395,146)"/>
</svg>
